<?xml version="1.0" encoding="utf-8"?>
<!-- Generator: Adobe Illustrator 21.1.0, SVG Export Plug-In . SVG Version: 6.00 Build 0)  -->
<svg version="1.1" id="Capa_1" xmlns="http://www.w3.org/2000/svg" xmlns:xlink="http://www.w3.org/1999/xlink" x="0px" y="0px"
	 viewBox="0 0 512 512" style="enable-background:new 0 0 512 512;" xml:space="preserve">
<title>1</title>
<g>
	<path d="M230.8,450.1c-6.1,0-11-5-11-11v-43.6l-5.3-21.1h-27.9c-16.5,0-30-13.4-30-30v-37.9c0-4.4,1-8.7,3.1-13l0.8-1.6l-1.6-0.6
		c-46.6-17-78-61.7-78-111.1c0-65.3,53.1-118.3,118.3-118.3c62.9,0,114.7,49.2,118,112.1l0.1,1.5h17.8l12.6-25.2h73.7l-15,30l15,30
		h-73.7L335.1,185h-17.8l-0.1,1.5c-1.8,34.3-18.4,66.1-45.7,87.2l-3.6,2.8h6.3l84.3-24.1v-2.7c0-6.1,5-11,11-11h25.2
		c6.1,0,11,5,11,11v40.7l1,0.4c14.5,5.4,24.2,19.3,24.2,34.6c0,15.4-9.7,29.3-24.2,34.6l-1,0.4v40.7c0,6.1-5,11-11,11h-25.2
		c-6.1,0-11-5-11-11v-2.7l-81.2-23.2L267,396V439c0,6.1-5,11-11,11H230.8z M229.2,440.6h28.4v-41h-28.4V440.6z M368,402.7h28.4
		V248.1H368V402.7z M228.1,390.1h31.2l7.9-15.8h-43.1L228.1,390.1z M279.7,284.8V366l78.9,22.5V262.3L279.7,284.8z M251.7,286.1
		c-14.5,7.2-30,11.3-46.3,12.1l-1.5,0.1v66.5h66.3V286h-18.1L251.7,286.1z M169.1,295.7c-2,3.2-3,7-3,10.8v37.9
		c0,11.3,9.2,20.5,20.5,20.5h7.9v-66.5l-1.5-0.1c-7.5-0.4-15-1.5-22.1-3.3l-1.1-0.3L169.1,295.7z M405.9,350.5l2.4-1.4
		c8.4-5,13.4-13.9,13.4-23.6c0-9.7-5-18.6-13.4-23.6l-2.4-1.4V350.5z M199.2,71.4c-60,0-108.9,48.8-108.9,108.9
		s48.8,108.9,108.9,108.9c57.5,0,105.2-45,108.5-102.5l0.1-1.7h-15.8l-0.1,1.5c-3.2,48.7-44,86.9-92.8,86.9
		c-51.3,0-93.1-41.8-93.1-93.1s41.8-93.1,93.1-93.1c48.8,0,89.5,38.2,92.8,86.9l0.1,1.5h15.8l-0.1-1.7
		C304.4,116.4,256.7,71.4,199.2,71.4z M199.2,96.6c-46.1,0-83.6,37.5-83.6,83.6s37.5,83.6,83.6,83.6c21.2,0,41.4-8,56.9-22.4
		c15.4-14.4,24.8-33.8,26.4-54.8l0.1-1.7h-28.4l-0.2,1.4c-3.1,28-26.7,49.1-54.9,49.1c-30.5,0-55.2-24.8-55.2-55.2
		s24.8-55.2,55.2-55.2c28.2,0,51.8,21.1,54.9,49.1l0.2,1.4h28.4l-0.1-1.7c-1.6-20.9-11-40.4-26.4-54.8
		C240.6,104.6,220.4,96.6,199.2,96.6z M199.2,134.5c-25.2,0-45.8,20.5-45.8,45.8S174,226,199.2,226c22.6,0,42-16.9,45.2-39.2
		l0.3-1.8h-43.9v-9.5h43.9l-0.3-1.8C241.2,151.4,221.8,134.5,199.2,134.5z M378.8,200.8h27.3l-7.9-15.8H371L378.8,200.8z
		 M353.6,200.8h14.7l-7.9-15.8h-14.7L353.6,200.8z M371,175.5h27.3l7.9-15.8h-27.3L371,175.5z M345.7,175.5h14.7l7.9-15.8h-14.7
		L345.7,175.5z"/>
	<rect x="220.5" y="320.7" width="34.7" height="9.5"/>
	<rect x="220.5" y="339.6" width="34.7" height="9.5"/>
</g>
</svg>
