<?xml version="1.0" encoding="utf-8"?>
<!-- Generator: Adobe Illustrator 21.1.0, SVG Export Plug-In . SVG Version: 6.00 Build 0)  -->
<svg version="1.1" id="Capa_1" xmlns="http://www.w3.org/2000/svg" xmlns:xlink="http://www.w3.org/1999/xlink" x="0px" y="0px"
	 viewBox="0 0 512 512" style="enable-background:new 0 0 512 512;" xml:space="preserve">
<path d="M275.9,449.9c-7.4,0-14.4-3.3-19.1-9.1l-0.8-1l-0.8,1c-4.7,5.8-11.7,9.1-19.1,9.1c-13.5,0-24.6-11-24.6-24.5v-102l-1.5,0.8
	c-2.5,1.4-5.2,2.2-8.1,2.5l-0.4,0l-26.4,26.4l10.1,10.1c2,2,2.6,4.9,1.7,7.5c-1,2.6-3.3,4.5-6.1,4.7l-70.3,6.7c-0.2,0-0.5,0-0.7,0
	c-1.9,0-3.7-0.7-5.1-2.1c-1.5-1.5-2.3-3.6-2.1-5.8l6.7-70.3c0.3-2.8,2.1-5.1,4.7-6.1c0.8-0.3,1.6-0.4,2.5-0.4c1.9,0,3.7,0.8,5.1,2.1
	l10.1,10.1l47.5-47.5V250l-47.5-47.5l-10.1,10.1c-1.4,1.4-3.2,2.1-5.1,2.1c-0.8,0-1.7-0.1-2.5-0.4c-2.6-1-4.5-3.3-4.7-6.1l-6.7-70.3
	c-0.2-2.1,0.6-4.2,2.1-5.8c1.4-1.4,3.2-2.1,5.1-2.1c0.2,0,0.5,0,0.7,0l20.6,2c2.6,0.2,4.5,2.5,4.2,5.1c-0.2,2.4-2.2,4.3-4.7,4.3
	c-0.1,0-0.3,0-0.4,0l-18-1.7l6,62.9l8.3-8.3c1.4-1.4,3.2-2.1,5.1-2.1c1.9,0,3.7,0.7,5.1,2.1l43.2,43.2l0.3-1.9
	c2-12.1,6.9-23.3,14.4-33.2c1.3-1.7,2.6-3.3,4.1-5l0.6-0.7l-32.5-32.5c-1.4-1.4-2.1-3.2-2.1-5.1s0.7-3.7,2.1-5.1l8.3-8.3l-18.3-1.8
	c-2.6-0.2-4.5-2.6-4.2-5.1c0.2-2.4,2.2-4.3,4.7-4.3c0.1,0,0.3,0,0.5,0l23,2.2c2.8,0.3,5.1,2.1,6.1,4.7c1,2.6,0.3,5.5-1.7,7.5
	l-10.1,10.1l31,31l0.7-0.6c7.9-6.6,17.2-11.6,26.9-14.5c1.2-0.4,2.1-1.5,2.1-2.8v-4.5l-0.6-0.2c-20.9-8.1-35-28.5-35-50.9
	c0-30.1,24.5-54.5,54.5-54.5c14.5,0,28.2,5.7,38.5,16s16,24,16,38.5c0,21.7-12.9,41.3-32.8,50l-0.6,0.3v5.4c0,1.3,0.9,2.5,2.1,2.8
	c9.7,2.9,19,7.9,26.9,14.5l0.7,0.6l31-31L326.6,149c-2-2-2.6-4.9-1.7-7.5c1-2.6,3.3-4.5,6.1-4.7l70.3-6.7c0.2,0,0.5,0,0.7,0
	c1.9,0,3.7,0.7,5.1,2.1c1.5,1.5,2.3,3.6,2.1,5.8l-6.7,70.3c-0.3,2.8-2.1,5.1-4.7,6.1c-0.8,0.3-1.6,0.4-2.5,0.4
	c-1.9,0-3.7-0.8-5.1-2.1l-10.1-10.1L332.7,250v12.1l47.5,47.5l10.1-10.1c1.4-1.4,3.2-2.1,5.1-2.1c0.8,0,1.7,0.1,2.5,0.4
	c2.6,1,4.5,3.3,4.7,6.1l6.7,70.3c0.2,2.1-0.6,4.2-2.1,5.8c-1.4,1.4-3.2,2.1-5.1,2.1c-0.2,0-0.5,0-0.7,0l-70.3-6.7
	c-2.8-0.3-5.1-2.1-6.1-4.7c-1-2.6-0.3-5.5,1.7-7.5l10.1-10.1l-26.4-26.4l-0.4,0c-2.9-0.3-5.6-1.1-8.1-2.5l-1.5-0.8V339
	c0,2.6-2.1,4.7-4.7,4.7s-4.7-2.1-4.7-4.7v-98c0-2.6,2.1-4.7,4.7-4.7s4.7,2.1,4.7,4.7c0,0,0.1,64.7,0.1,65c0,6.3,5.1,11.4,11.4,11.4
	s11.4-5.1,11.4-11.4v-57.5c0-14.8-4.7-28.8-13.6-40.5c-8.6-11.4-20.8-19.9-34.3-23.9c-5.2-1.6-8.8-6.4-8.8-11.9v-2.4l-1.2,0.2
	c-3.5,0.7-7,1-10.5,1c-2.8,0-5.6-0.2-8.3-0.6l-1.2-0.2v1.9c0,5.4-3.6,10.3-8.8,11.9c-13.6,4.1-25.8,12.6-34.3,23.9
	c-8.9,11.7-13.6,25.7-13.6,40.5V306c0,6.3,5.1,11.4,11.4,11.4s11.4-5.1,11.4-11.4l0.1-66c0-2.6,2.1-4.7,4.7-4.7
	c2.6,0,4.7,2.1,4.7,4.7v185.4c0,8.3,6.8,15.1,15.2,15.1c8.4,0,15.2-6.8,15.2-15.1l0-107.4c0-2.6,2.1-4.7,4.7-4.7
	c2.6,0,4.7,2.1,4.7,4.7v107.4c0,8.3,6.8,15.1,15.2,15.1s15.2-6.8,15.2-15.1v-59.8c0-2.6,2.1-4.7,4.7-4.7s4.7,2.1,4.7,4.7v59.8
	C300.4,438.9,289.4,449.9,275.9,449.9z M332.7,306c0,7.3-3.9,14.1-10.1,17.8l-1.1,0.7l23.5,23.5c1.4,1.4,2.1,3.2,2.1,5.1
	s-0.7,3.7-2.1,5.1l-8.3,8.3l62.9,6l-6-62.9l-8.3,8.3c-1.4,1.4-3.2,2.1-5.1,2.1c-1.9,0-3.7-0.7-5.1-2.1l-42.4-42.4V306z M112.5,372.5
	l62.9-6l-8.3-8.3c-1.4-1.4-2.1-3.2-2.1-5.1s0.7-3.7,2.1-5.1l23.5-23.5l-1.1-0.7c-6.3-3.7-10.1-10.6-10.1-17.8v-30.5l-42.4,42.4
	c-1.4,1.4-3.2,2.1-5.1,2.1c-1.9,0-3.7-0.7-5.1-2.1l-8.3-8.3L112.5,372.5z M336.6,145.7l8.3,8.3c1.4,1.4,2.1,3.2,2.1,5.1
	c0,1.9-0.7,3.7-2.1,5.1l-32.5,32.5l0.6,0.7c1.5,1.6,2.9,3.3,4.1,5c7.5,9.9,12.3,21.1,14.4,33.2l0.3,1.9l43.2-43.2
	c1.4-1.4,3.2-2.1,5.1-2.1c1.9,0,3.7,0.7,5.1,2.1l8.3,8.3l6-62.9L336.6,145.7z M254.9,71.5c-24.9,0-45.1,20.2-45.1,45.1
	s20.2,45.1,45.1,45.1c24.9,0,45.1-20.2,45.1-45.1S279.7,71.5,254.9,71.5z"/>
</svg>
