<svg id="Capa_1" data-name="Capa 1" xmlns="http://www.w3.org/2000/svg" viewBox="0 0 512 512"><title>1</title><path d="M421.23,414.16a5.05,5.05,0,0,1-2.19-.5L256.1,336.29l-40.11,19a5.32,5.32,0,0,1-2.3.52,5.37,5.37,0,0,1-2.31-10.22l42.42-20.14a5.36,5.36,0,0,1,4.6,0L416,400.32V298l-13.64,7.17a18.07,18.07,0,0,1-8.48,2.12,19.69,19.69,0,0,1-14.82-7,18.17,18.17,0,0,1-4.12-15l2.91-16.94c.78-4.55-2.43-7.47-4.35-9.21-.31-.28-.59-.53-.85-.79l-9.46-9.22a19.07,19.07,0,0,1,10.47-32.23l17-2.48A8.26,8.26,0,0,0,396.8,210l7.5-15.2H340.87l-11.2,10.91-1.28,1.23-.18.18c-4.11,3.89-9.74,9.22-8.33,17.42l4.45,25.92a25.1,25.1,0,0,1-5.69,20.72,27.12,27.12,0,0,1-20.42,9.69,24.94,24.94,0,0,1-11.71-2.93l-23.28-12.24a15.43,15.43,0,0,0-14.26,0l-23.28,12.24A24.91,24.91,0,0,1,214,280.79a27.16,27.16,0,0,1-20.46-9.69,25.07,25.07,0,0,1-5.67-20.7l4.45-25.92c1.39-8.07-4-13.26-8-17.05l-1.07-1-12-11.66H107.89l7.5,15.21a8.14,8.14,0,0,0,6.14,4.46l17,2.47A19.07,19.07,0,0,1,149,249.11l-12.31,12a8.26,8.26,0,0,0-2.35,7.22l2.91,16.94a18.32,18.32,0,0,1-4.19,15.11,19.44,19.44,0,0,1-14.62,7,18.13,18.13,0,0,1-6.18-1.09,19.41,19.41,0,0,1-2.42-1.07L96.22,298v102.3l43.58-20.69a5.33,5.33,0,0,1,2.3-.52,5.4,5.4,0,0,1,4.85,3.07,5.38,5.38,0,0,1-2.55,7.15L93.15,413.66a5,5,0,0,1-2.18.5,5.5,5.5,0,0,1-5.5-5.34V298l-13.64,7.17a18.08,18.08,0,0,1-8.48,2.13,19.67,19.67,0,0,1-14.8-7,18.19,18.19,0,0,1-4.13-15l2.9-16.94A8.15,8.15,0,0,0,45,261.11l-12.31-12a18.9,18.9,0,0,1,10.47-32.23l17-2.47A8.16,8.16,0,0,0,66.29,210l7.61-15.41A18.79,18.79,0,0,1,90.8,184h72l-1-4.52a26.1,26.1,0,0,1,21.73-31.38l26-3.78a15.32,15.32,0,0,0,11.54-8.38l11.64-23.58a26.07,26.07,0,0,1,46.75,0l11.64,23.58a15.32,15.32,0,0,0,11.54,8.38l26,3.78a26.1,26.1,0,0,1,21.73,31.38l-1,4.53h72a18.79,18.79,0,0,1,16.9,10.53L445.9,210a8.15,8.15,0,0,0,6.14,4.46l17,2.47a19.09,19.09,0,0,1,10.47,32.23l-12.31,12a8.16,8.16,0,0,0-2.35,7.22l2.91,16.94a18.19,18.19,0,0,1-4.13,15,19.67,19.67,0,0,1-14.8,7,18.08,18.08,0,0,1-8.48-2.12L426.71,298V408.81A5.49,5.49,0,0,1,421.23,414.16Zm.11-128.62a19,19,0,0,1,8.79,2.15l15.21,8a8,8,0,0,0,3.76.94,8.22,8.22,0,0,0,6.28-2.95,8.08,8.08,0,0,0,1.79-6.58l-2.9-16.94a18.89,18.89,0,0,1,5.43-16.72l12.3-12a8.18,8.18,0,0,0-4.52-13.91l-17-2.47a18.89,18.89,0,0,1-14.23-10.34l-7.61-15.41a8,8,0,0,0-7.29-4.55h-.11A8,8,0,0,0,414,199.3l-7.6,15.41A19.17,19.17,0,0,1,392.2,225l-17,2.47a8.18,8.18,0,0,0-4.52,13.91l6.55,6.38c3.53,3.44,6.87,6.82,9,10.48a16.76,16.76,0,0,1,2.2,11.86l-2.9,16.94a8.07,8.07,0,0,0,1.79,6.58,8.22,8.22,0,0,0,6.29,3,8,8,0,0,0,3.75-.93l15.21-8A19,19,0,0,1,421.35,285.54ZM90.81,194.75a8,8,0,0,0-7.28,4.55l-7.61,15.41A18.89,18.89,0,0,1,61.7,225l-17,2.47a8.15,8.15,0,0,0-4.52,13.91l12.3,12a18.89,18.89,0,0,1,5.43,16.72L55,287.09a8.07,8.07,0,0,0,1.79,6.58,8.23,8.23,0,0,0,6.29,3,8,8,0,0,0,3.75-.93l15.21-8a19.06,19.06,0,0,1,17.58,0l15.21,8a8,8,0,0,0,3.74.93,8.35,8.35,0,0,0,6.3-3,8.05,8.05,0,0,0,1.79-6.57l-2.43-14.22c-1.17-6.85-.49-11.81,2.24-16.07a37.05,37.05,0,0,1,5.84-6.45l1.74-1.66,7.46-7.27A8.19,8.19,0,0,0,137,227.51L120,225a19.16,19.16,0,0,1-14.23-10.33L98.16,199.3a8,8,0,0,0-7.24-4.55Zm165.28-86.17a15,15,0,0,0-13.74,8.54L230.71,140.7A26.06,26.06,0,0,1,211.09,155l-26,3.78a15.32,15.32,0,0,0-8.49,26.14l18.34,17.88a26.55,26.55,0,0,1,8,23.54l-4.34,25.29a15.6,15.6,0,0,0,15.09,18.55,15,15,0,0,0,7-1.77L244,256.13a26.39,26.39,0,0,1,24.26,0l23.27,12.24a14.85,14.85,0,0,0,7,1.75,15.76,15.76,0,0,0,11.88-5.6,14.9,14.9,0,0,0,3.36-12.3l-4.45-25.92c-1.91-11.17,4.06-19.73,9.41-24.94l16.92-16.49a15.32,15.32,0,0,0-8.49-26.14l-26-3.78a26.07,26.07,0,0,1-19.63-14.26l-11.64-23.58A15,15,0,0,0,256.09,108.57Z"/><path d="M176.29,372a5.46,5.46,0,0,1-5-3.29,5.45,5.45,0,0,1,2.89-7,5.18,5.18,0,0,1,2-.39,5.48,5.48,0,0,1,5,3.3,5.44,5.44,0,0,1-2.9,7A5.19,5.19,0,0,1,176.29,372Z"/></svg>