<svg id="Capa_1" data-name="Capa 1" xmlns="http://www.w3.org/2000/svg" viewBox="0 0 512 512"><title>1</title><path d="M348.87,384.89a5.37,5.37,0,0,0-3.8-1.57H237.43a22.91,22.91,0,0,1-16.16-6.73l-49.12-49.51a5.37,5.37,0,0,0-7.63,7.57l49.12,49.51a33.73,33.73,0,0,0,23.79,9.91H342.84l43.88,43.88a5.37,5.37,0,1,0,7.6-7.6Z"/><path d="M437.54,358.29l-52.12-52.12a46.1,46.1,0,0,0-85-8.8.63.63,0,0,1-.55.36H274.23L232.46,256a20.6,20.6,0,0,0-34.36,8.79,20.13,20.13,0,0,0-33.31,8.77,21.74,21.74,0,0,0-28.51,32.69l12.06,12.16a5.37,5.37,0,0,0,7.63-7.57L143.9,298.62a11,11,0,1,1,15.55-15.55l62.46,62.46a5.37,5.37,0,0,0,3.8,1.57h81.69a5.37,5.37,0,1,0,0-10.75H252.18a13.95,13.95,0,0,1,0-27.89h47.64a11.36,11.36,0,0,0,10-6.07,35.36,35.36,0,0,1,65.53,7.87,5.38,5.38,0,0,0,1.41,2.49l53.13,53.13a5.37,5.37,0,1,0,7.6-7.6Zm-209.6-21.92-50.48-50.48a9.41,9.41,0,0,1,13.3-13.3l39.16,39.16a24.64,24.64,0,0,0,1.9,24.62Zm8.69-33.11L210.9,277.52a9.88,9.88,0,1,1,14-14L259,297.72h-6.85a24.57,24.57,0,0,0-15.55,5.53Z"/><path d="M208.44,395.44a5.37,5.37,0,0,0-5.37,5.37v12a16,16,0,0,1-16,16H99.62a16,16,0,0,1-16-16V254.89a5.37,5.37,0,0,0-10.75,0v157.9a26.76,26.76,0,0,0,26.73,26.73h87.46a26.76,26.76,0,0,0,26.73-26.73v-12A5.37,5.37,0,0,0,208.44,395.44Z"/><path d="M78.26,237.36A5.37,5.37,0,0,0,83.64,232v-6.85a36.07,36.07,0,0,1,10.21-25.22l23.51-24.27h52l23.51,24.27a36.07,36.07,0,0,1,10.21,25.22V235a5.37,5.37,0,0,0,10.75,0v-9.88a46.76,46.76,0,0,0-13.24-32.7l-25.09-25.91a5.35,5.35,0,0,0-.79-.67V145.24a17,17,0,0,0-15.15-16.9V109.73h52.3v14.43a11.07,11.07,0,0,0,11.06,11.06h15.14a11.07,11.07,0,0,0,11.06-11.06V106.73a34.29,34.29,0,0,0-34.25-34.25H140.28a5.37,5.37,0,0,0,0,10.75h74.57a23.53,23.53,0,0,1,23.51,23.51v17.43a.31.31,0,0,1-.31.31H222.91a.31.31,0,0,1-.31-.31V106.73A7.75,7.75,0,0,0,214.85,99H98.1a.89.89,0,0,1-.89-.89v-14a.89.89,0,0,1,.89-.89h19.28a5.37,5.37,0,0,0,0-10.75H98.1A11.65,11.65,0,0,0,86.46,84.11v14A11.65,11.65,0,0,0,98.1,109.73h29.05v18.61A17,17,0,0,0,112,145.24v20.63a5.39,5.39,0,0,0-.79.67L86.13,192.45a46.76,46.76,0,0,0-13.24,32.7V232a5.37,5.37,0,0,0,5.37,5.37ZM148.8,109.73v18.51H137.9V109.73ZM129,139H157.7a6.26,6.26,0,0,1,6.26,6.26V164.9h-41.2V145.24A6.26,6.26,0,0,1,129,139Z"/><path d="M247.11,150.72C232.46,171.5,225,186.84,225,196.3a35.76,35.76,0,0,0,18.5,31.3,5.37,5.37,0,1,0,5.19-9.41,25,25,0,0,1-12.94-21.89c0-3.26,2-13.64,20.1-39.39a6,6,0,0,1,9.76,0,212.88,212.88,0,0,1,14.2,22.68,5.37,5.37,0,0,0,9.52-5,220.55,220.55,0,0,0-14.93-23.88,16.72,16.72,0,0,0-27.33,0Z"/><path d="M279.58,196.68c-15.8,21.18-19.11,32-19.11,37.3a26.22,26.22,0,0,0,52.43,0c0-5.32-3.32-16.11-19.11-37.3a8.86,8.86,0,0,0-14.21,0ZM302.15,234a15.47,15.47,0,0,1-30.94,0c0-4.68,6-15.86,15.47-28.83C296.13,218.13,302.15,229.31,302.15,234Z"/></svg>