<svg id="Capa_1" data-name="Capa 1" xmlns="http://www.w3.org/2000/svg" viewBox="0 0 512 512"><defs><style>.cls-1{fill:#231f20;}</style></defs><title>1-05-03</title><path class="cls-1" d="M256,339.78a84.18,84.18,0,0,1-67-33.5,5.8,5.8,0,1,1,9.28-7,72.19,72.19,0,1,0,113-89.74,5.8,5.8,0,0,1,8.88-7.46A83.8,83.8,0,0,1,256,339.78Z"/><path class="cls-1" d="M187.15,227.63a5.8,5.8,0,0,1-5.19-8.39,81.73,81.73,0,0,1,73.76-45.88H256a5.8,5.8,0,1,1,0,11.6h-.23a70.25,70.25,0,0,0-63.42,39.46,5.77,5.77,0,0,1-5.19,3.21Z"/><path class="cls-1" d="M179.21,264.55a5.77,5.77,0,0,1-5.79-5.61c-.05-1-.05-1.94-.05-2.95,0-2.33.1-4.68.3-7a5.82,5.82,0,0,1,3.29-4.84,5.8,5.8,0,0,1,5.81.48,5.81,5.81,0,0,1,2.45,5.29c-.17,2-.26,4-.26,6.06,0,.86,0,1.72.06,2.59a5.79,5.79,0,0,1-5.61,6Z"/><path class="cls-1" d="M92.22,261.8a5.8,5.8,0,0,1,0-11.6h31.2a5.8,5.8,0,0,1,0,11.6Z"/><path class="cls-1" d="M388.59,261.8a5.8,5.8,0,1,1,0-11.6h31.2a5.8,5.8,0,0,1,0,11.6Z"/><path class="cls-1" d="M140.1,377.7a5.8,5.8,0,0,1-4-10l22.08-22.08a5.8,5.8,0,0,1,8.11.09,5.83,5.83,0,0,1,.07,8.13l-22,22a5.85,5.85,0,0,1-4.19,1.79Z"/><path class="cls-1" d="M349.75,168a5.8,5.8,0,0,1-4.1-9.9l22.06-22.06a5.8,5.8,0,1,1,8.23,8.18l-22.08,22.08A5.84,5.84,0,0,1,349.75,168Z"/><path class="cls-1" d="M256,425.58a5.81,5.81,0,0,1-5.8-5.8v-31.2a5.8,5.8,0,0,1,11.6,0v31.2A5.81,5.81,0,0,1,256,425.58Z"/><path class="cls-1" d="M256,129.21a5.81,5.81,0,0,1-5.8-5.8V92.22a5.8,5.8,0,0,1,11.6,0v31.2A5.81,5.81,0,0,1,256,129.21Z"/><path class="cls-1" d="M162.15,167.95a5.78,5.78,0,0,1-4-1.63l-22-22a5.82,5.82,0,0,1,.09-8.11,5.8,5.8,0,0,1,8.13-.07l22,22a5.8,5.8,0,0,1-4.2,9.8Z"/><path class="cls-1" d="M371.9,377.7a5.83,5.83,0,0,1-4.17-1.77l-22.08-22.08a5.82,5.82,0,0,1,.1-8.11,5.8,5.8,0,0,1,8.13-.07l22,22a5.8,5.8,0,0,1-4,10Z"/><path class="cls-1" d="M217,300.79a5.8,5.8,0,0,1-5.39-8,313.15,313.15,0,0,0,11.64-36.35l.63-2.49H217a5.8,5.8,0,0,1,0-11.6h9l.22-1.75a68.67,68.67,0,0,0,.55-8,37.11,37.11,0,0,1,37-37c18.28,0,29.19,13.83,29.19,37a5.8,5.8,0,1,1-11.6,0c0-16.85-5.92-25.4-17.6-25.4a25.43,25.43,0,0,0-25.4,25.4,74.07,74.07,0,0,1-.46,7.58l-.25,2.22H256a5.8,5.8,0,1,1,0,11.6H235.69l-.36,1.55a288.44,288.44,0,0,1-9,31l-.94,2.67h54a5.8,5.8,0,0,1,0,11.6Z"/></svg>