<svg id="Capa_1" data-name="Capa 1" xmlns="http://www.w3.org/2000/svg" viewBox="0 0 512 512"><title>1-05-04</title><path d="M256,246.66a59.05,59.05,0,1,0-59.05-59.05A59.12,59.12,0,0,0,256,246.66ZM256,138a49.57,49.57,0,1,1-49.57,49.57A49.63,49.63,0,0,1,256,138Z"/><path d="M342.6,207.38a4.74,4.74,0,0,0-5.86,3.26c-2.14,7.53,2-2.33-74,163.95a7.4,7.4,0,0,1-13.47,0l-31.72-69.4a4.74,4.74,0,1,0-8.62,3.94l19.36,42.35c-20.57,5.83-33.56,17.76-33.56,31.32,0,19.63,26.92,35,61.28,35s61.28-15.38,61.28-35c0-13.56-13-25.49-33.56-31.32,65.21-142.69,59.59-129.28,62.14-138.24a4.74,4.74,0,0,0-3.26-5.86ZM279.73,360.21c16.94,4.45,28.06,13.29,28.06,22.59,0,13.84-23.72,25.53-51.79,25.53s-51.79-11.69-51.79-25.53c0-9.3,11.13-18.14,28.06-22.59l8.37,18.32a16.89,16.89,0,0,0,30.71,0Z"/><path d="M256,94.19a93.53,93.53,0,0,0-93.42,93.42c0,13.39,3.25,27.22,6.66,34.67L199.73,289a4.74,4.74,0,0,0,8.62-3.94l-30.44-66.61a84,84,0,1,1,162-28.46,4.74,4.74,0,1,0,9.48.27A93.53,93.53,0,0,0,256,94.19Z"/></svg>