<svg xmlns="http://www.w3.org/2000/svg" width="161.119" height="57.302" viewBox="0 0 161.119 57.302">
  <g id="Group_18" data-name="Group 18" transform="translate(-36.264 -34.668)">
    <g id="Group_16" data-name="Group 16">
      <g id="Group_15" data-name="Group 15">
        <path id="Path_188" data-name="Path 188" d="M58.229,49.643h3.013a.356.356,0,1,0,0-.712H58.229a.356.356,0,0,0,0,.712Zm1.506,26.4A1.569,1.569,0,1,0,61.3,77.617,1.571,1.571,0,0,0,59.735,76.046ZM52.049,74.7H67.425V51.963H52.049Zm49.3-7.468a3.062,3.062,0,0,0-1.982.723,3.4,3.4,0,0,0-1.164,1.91,3.941,3.941,0,0,0-.135.9v2.215a3.537,3.537,0,0,0,.888,2.453,2.966,2.966,0,0,0,2.312.995,3.025,3.025,0,0,0,2.6-1.286,5.669,5.669,0,0,0,.928-3.4,5.461,5.461,0,0,0-.873-3.2A3.046,3.046,0,0,0,101.348,67.236Zm53.922-.184a2.959,2.959,0,0,0-2.7,1.582,5.974,5.974,0,0,0-.8,3.189,5.88,5.88,0,0,0,.8,3.139,2.972,2.972,0,0,0,2.683,1.58,2.937,2.937,0,0,0,2.647-1.613,5.849,5.849,0,0,0,.827-3.158,5.963,5.963,0,0,0-.79-3.137A2.941,2.941,0,0,0,155.27,67.052Zm-39.3.184a3.059,3.059,0,0,0-1.983.723,3.419,3.419,0,0,0-1.166,1.91,3.867,3.867,0,0,0-.133.9v2.215a3.545,3.545,0,0,0,.887,2.453,2.964,2.964,0,0,0,2.309.995,3.022,3.022,0,0,0,2.605-1.286,5.656,5.656,0,0,0,.934-3.4,5.484,5.484,0,0,0-.876-3.2A3.054,3.054,0,0,0,115.967,67.236ZM85.42,62.477h-.052c-.185.785-.474,1.941-.879,3.477l-1.533,4.818h4.953l-1.554-4.818Q86.1,65.21,85.42,62.477Zm92.27,4.431a2.833,2.833,0,0,0-2.353,1.21,4.387,4.387,0,0,0-.876,2.294h6.158a4.055,4.055,0,0,0-.572-2.27A2.6,2.6,0,0,0,177.69,66.908ZM98.457,53.78A1.208,1.208,0,0,0,98.5,53.4v-.941c-1.224-.015-2.391.238-2.391,1.279a.909.909,0,0,0,.985.986A1.422,1.422,0,0,0,98.457,53.78ZM82.326,49.474c-.183-.577-.338-1.224-.478-1.772h-.03c-.139.548-.295,1.209-.45,1.772l-.73,2.336h2.433ZM180.42,48.8c2.223,0,2.955,1.829,2.955,3.335a4.137,4.137,0,0,1-.057.731h-4.587a1.855,1.855,0,0,0,2.111,1.773,5.487,5.487,0,0,0,1.9-.31l.253,1.183a6.176,6.176,0,0,1-2.392.435,3.241,3.241,0,0,1-3.531-3.46A3.393,3.393,0,0,1,180.42,48.8Zm-27.461.155.084,1.027h.043A2.512,2.512,0,0,1,155.28,48.8c1.2,0,2.435.773,2.435,2.94v4.067h-1.731v-3.87c0-.984-.366-1.73-1.308-1.73a1.454,1.454,0,0,0-1.352,1.013,1.617,1.617,0,0,0-.084.549v4.038h-1.73V50.994c0-.788-.029-1.449-.057-2.04ZM134.786,48.8c2.223,0,2.955,1.829,2.955,3.335a4.26,4.26,0,0,1-.056.731H133.1a1.855,1.855,0,0,0,2.11,1.773,5.491,5.491,0,0,0,1.9-.31l.253,1.183a6.174,6.174,0,0,1-2.391.435,3.241,3.241,0,0,1-3.532-3.46A3.393,3.393,0,0,1,134.786,48.8Zm-7.093-2.983h1.73v9.99h-1.73Zm-13.724,4.207a3.621,3.621,0,0,0-1.843.507l-.338-1.126a4.927,4.927,0,0,1,2.476-.6,2.568,2.568,0,0,1,2.829,2.9V54.16a9.3,9.3,0,0,0,.111,1.646h-1.561l-.126-.76h-.042a2.506,2.506,0,0,1-2.027.915,2.034,2.034,0,0,1-2.153-2.041c0-1.716,1.533-2.6,4.066-2.588v-.113C115.361,50.769,115.178,50.023,113.969,50.023ZM103.736,46.1a.936.936,0,1,1-.97.943A.925.925,0,0,1,103.736,46.1Zm.858,2.857v6.852h-1.73V48.954Zm-23.8-2.632H83l3.081,9.484H84.211l-.858-2.688h-3l-.816,2.688H77.752ZM69.268,77.768a3.032,3.032,0,0,1-3.033,3.025H53.24a3.032,3.032,0,0,1-3.034-3.025V48.891a3.035,3.035,0,0,1,3.034-3.029H66.235a3.035,3.035,0,0,1,3.033,3.029Zm20.888.693-1.722-5.415h-6l-1.644,5.415H77.73l5.935-18.448h3.672l5.97,18.448Zm.672-22.655h-1.7l-2.547-6.852H88.45l1.11,3.475c.2.6.338,1.154.465,1.717h.043c.126-.563.282-1.1.464-1.717l1.1-3.475h1.815Zm3.563-1.886c0-1.716,1.533-2.6,4.066-2.588v-.113c0-.45-.184-1.2-1.394-1.2a3.62,3.62,0,0,0-1.842.507L94.883,49.4a4.924,4.924,0,0,1,2.476-.6c2.195,0,2.828,1.393,2.828,2.9V54.16a9.18,9.18,0,0,0,.113,1.646H98.737l-.126-.76h-.042a2.5,2.5,0,0,1-2.026.915A2.033,2.033,0,0,1,94.391,53.92Zm11.574,23.1a5.418,5.418,0,0,1-4.1,1.747,4.1,4.1,0,0,1-3.8-1.891v6.986H95.113V69.53q0-2.134-.113-4.372h2.6l.163,2.107h.051a5.273,5.273,0,0,1,8.425-.516,7.346,7.346,0,0,1,1.572,4.9A7.523,7.523,0,0,1,105.965,77.015Zm3.076-21.209h-1.73v-9.99h1.73ZM120.58,77.015a5.419,5.419,0,0,1-4.1,1.747,4.093,4.093,0,0,1-3.794-1.891v6.986h-2.958V69.53q0-2.134-.109-4.372h2.594l.171,2.107h.051a5.266,5.266,0,0,1,8.418-.516,7.316,7.316,0,0,1,1.576,4.9A7.523,7.523,0,0,1,120.58,77.015Zm2.03-21.054a2.358,2.358,0,0,1-2.167-1.182h-.028l-.084,1.027h-1.478c.029-.465.057-1.224.057-1.928V45.816h1.73V49.9h.028a2.479,2.479,0,0,1,2.195-1.1c1.675,0,2.87,1.393,2.857,3.475C125.72,54.737,124.158,55.961,122.61,55.961Zm14.88,21.158a7.28,7.28,0,0,1-5.027,1.613,8.81,8.81,0,0,1-4.781-1.148l.686-2.462a8.263,8.263,0,0,0,4.265,1.149,4.053,4.053,0,0,0,2.6-.752,2.462,2.462,0,0,0,.928-2.02,2.578,2.578,0,0,0-.764-1.881,7.2,7.2,0,0,0-2.545-1.423q-4.839-1.8-4.842-5.279a4.653,4.653,0,0,1,1.706-3.726,6.784,6.784,0,0,1,4.532-1.449,9.018,9.018,0,0,1,4.189.874l-.746,2.409a7.31,7.31,0,0,0-3.54-.85,3.673,3.673,0,0,0-2.447.764,2.217,2.217,0,0,0-.738,1.675,2.284,2.284,0,0,0,.847,1.81,9.672,9.672,0,0,0,2.68,1.418A9,9,0,0,1,138,70.088a4.7,4.7,0,0,1,1.122,3.2A4.93,4.93,0,0,1,137.49,77.119Zm10.421-9.746h-3.263v6.466c0,1.641.579,2.455,1.73,2.455a5.431,5.431,0,0,0,1.312-.128l.084,2.239a6.693,6.693,0,0,1-2.3.329,3.525,3.525,0,0,1-2.736-1.067,5.193,5.193,0,0,1-.99-3.584v-6.71h-1.941V65.158h1.941V62.723l2.9-.876v3.311h3.263Zm-1.667-11.412a3.314,3.314,0,0,1-3.434-3.532,3.383,3.383,0,0,1,3.546-3.63,3.288,3.288,0,0,1,3.406,3.517A3.4,3.4,0,0,1,146.244,55.961Zm13.795,20.781a6.276,6.276,0,0,1-4.871,2.02,5.955,5.955,0,0,1-4.674-1.942,7.085,7.085,0,0,1-1.734-4.9,7.226,7.226,0,0,1,1.791-5.062,6.188,6.188,0,0,1,4.828-1.967,6.062,6.062,0,0,1,4.714,1.943,7.008,7.008,0,0,1,1.694,4.869A7.3,7.3,0,0,1,160.039,76.742Zm3.055-27.788h.97V47.673l1.7-.479v1.76h1.645v1.294h-1.645v3.025c0,.845.224,1.267.885,1.267a2.263,2.263,0,0,0,.676-.071l.028,1.308a3.779,3.779,0,0,1-1.252.184,1.985,1.985,0,0,1-1.492-.563,2.7,2.7,0,0,1-.549-1.928V50.248h-.97Zm7.588,18.8a5.329,5.329,0,0,0-.931-.075,2.8,2.8,0,0,0-2.408,1.175,4.4,4.4,0,0,0-.74,2.625v6.979h-2.956V69.342q0-2.286-.079-4.184h2.573l.11,2.547h.081a4.48,4.48,0,0,1,1.478-2.1,3.55,3.55,0,0,1,2.137-.71,4.657,4.657,0,0,1,.735.05Zm.448-16.06v4.109H169.4v-9.99h1.73v4.066h.028a2.281,2.281,0,0,1,.859-.773,2.425,2.425,0,0,1,1.2-.31c1.168,0,2.392.773,2.392,2.969v4.038h-1.731V51.951c0-.985-.366-1.745-1.322-1.745a1.442,1.442,0,0,0-1.351.971A1.533,1.533,0,0,0,171.13,51.7Zm12.2,20.83h-8.87a3.847,3.847,0,0,0,1.288,3,4.375,4.375,0,0,0,2.9.932,9.679,9.679,0,0,0,3.586-.634l.466,2.055a11.038,11.038,0,0,1-4.465.82,6.451,6.451,0,0,1-4.854-1.817A6.723,6.723,0,0,1,171.611,72a7.663,7.663,0,0,1,1.643-5.014,5.685,5.685,0,0,1,4.655-2.132,4.946,4.946,0,0,1,4.353,2.132,7.211,7.211,0,0,1,1.176,4.193A7.445,7.445,0,0,1,183.331,72.527Zm-61.1-22.378a1.608,1.608,0,0,0-1.533,1.267,2.005,2.005,0,0,0-.057.45v1.111a1.865,1.865,0,0,0,.043.409,1.581,1.581,0,0,0,1.533,1.21c1.084,0,1.745-.859,1.745-2.251C123.961,51.135,123.384,50.149,122.23,50.149Zm12.457-.168a1.692,1.692,0,0,0-1.589,1.674h3.01A1.472,1.472,0,0,0,134.687,49.981Zm11.627.07c-1.224,0-1.716,1.2-1.716,2.335,0,1.323.661,2.322,1.7,2.322.984,0,1.674-.956,1.674-2.349C147.975,51.289,147.5,50.051,146.314,50.051Zm-33.3,3.686a.909.909,0,0,0,.984.986,1.42,1.42,0,0,0,1.365-.943,1.181,1.181,0,0,0,.042-.381v-.941C114.18,52.443,113.012,52.7,113.012,53.737Zm67.309-3.756a1.694,1.694,0,0,0-1.59,1.674h3.011A1.472,1.472,0,0,0,180.321,49.981Z" fill="#fff"/>
      </g>
    </g>
    <g id="Group_17" data-name="Group 17">
      <path id="Path_189" data-name="Path 189" d="M189.658,91.97H43.987a7.727,7.727,0,0,1-7.723-7.715V42.393a7.732,7.732,0,0,1,7.723-7.725H189.658a7.733,7.733,0,0,1,7.725,7.725V84.255A7.729,7.729,0,0,1,189.658,91.97ZM43.987,36.668a5.73,5.73,0,0,0-5.723,5.725V84.255a5.725,5.725,0,0,0,5.723,5.715H189.658a5.727,5.727,0,0,0,5.725-5.715V42.393a5.732,5.732,0,0,0-5.725-5.725Z" fill="#fff"/>
    </g>
  </g>
</svg>
