<?xml version="1.0" encoding="utf-8"?>
<!-- Generator: Adobe Illustrator 21.1.0, SVG Export Plug-In . SVG Version: 6.00 Build 0)  -->
<svg version="1.1" id="Layer_1" xmlns="http://www.w3.org/2000/svg" xmlns:xlink="http://www.w3.org/1999/xlink" x="0px" y="0px"
	 viewBox="0 0 750 500" style="enable-background:new 0 0 750 500;" xml:space="preserve">
<style type="text/css">
	.st0{fill:#97FFC8;}
	.st1{fill:#4AFF97;}
	.st2{fill:#E6E6E6;}
	.st3{fill:#FFFFFF;}
	.st4{fill:#73FFB2;}
	.st5{fill:#FFCC00;}
	.st6{fill:#FFB900;}
	.st7{fill:#EA8E00;}
	.st8{fill:#FF4646;}
	.st9{fill:#FFE45F;}
	.st10{fill:#F1F1F1;}
	.st11{fill:none;stroke:#EA8E00;stroke-width:2.83;stroke-miterlimit:22.93;}
	.st12{fill:none;stroke:#EA8E00;stroke-width:2.13;stroke-miterlimit:22.93;}
	.st13{fill:#333333;}
	.st14{fill:#666666;}
	.st15{fill:#FFFF66;}
	.st16{fill:#FFAA00;}
	.st17{fill:#CCCCCC;}
	.st18{fill:#95B9FF;}
	.st19{fill:#FF4848;}
	.st20{fill:#FF1D1D;}
	.st21{fill:#663300;}
	.st22{fill:#FFCC99;}
	.st23{fill:#FFBA87;}
	.st24{fill:#FF9966;}
	.st25{fill:#F2F2F2;}
	.st26{fill:#E8E8E8;}
	.st27{fill:#E20613;}
</style>
<title>3725832</title>
<g id="OBJECTS">
	<path class="st0" d="M366.1,102.7c133.6-45.3,264.5-15.5,292.4,66.6S600.7,354.8,467,400.1s-264.5,15.5-292.4-66.6
		S232.5,148,366.1,102.7z"/>
	<path class="st1" d="M627.9,140.6c16.3-5.5,32.1-2.5,35.3,6.9s-7.5,21.4-23.8,26.9s-32.1,2.5-35.3-6.9S611.6,146.2,627.9,140.6z"/>
	<path class="st1" d="M604,120.3c8.3,2.8,13.4,9.9,11.4,15.8s-10.4,8.3-18.7,5.5s-13.4-9.9-11.4-15.8S595.7,117.4,604,120.3z"/>
	<path class="st1" d="M630,120.1c4.5-1.5,9-0.1,10.1,3.2s-1.6,7.1-6.1,8.6s-9,0.1-10.1-3.2S625.5,121.6,630,120.1z"/>
	<path class="st2" d="M151.7,238.8c-6.5,12.4-17.5,19.5-24.6,15.8s-7.6-16.8-1.1-29.2c6.5-12.4,17.5-19.5,24.6-15.8
		S158.2,226.4,151.7,238.8L151.7,238.8z"/>
	<path class="st2" d="M124.7,189.2c6.6,2.6,10.4,8.4,8.6,13.1s-8.6,6.3-15.2,3.7s-10.4-8.4-8.6-13.1S118.2,186.7,124.7,189.2z"/>
	<path class="st2" d="M139.4,175.8c1.8-3.7,5.4-5.6,8.1-4.3s3.5,5.4,1.7,9s-5.4,5.6-8.1,4.3S137.7,179.4,139.4,175.8z"/>
	<path class="st2" d="M311.4,90.9c113.3,38.1,227.3-44.7,263,88.2c20.8,77.7-137,104.5-229.4,116.4S170.7,266,162,202.9
		S198,52.7,311.4,90.9L311.4,90.9z"/>
	<path class="st3" d="M198,102.4l-8.4,34.2l100.8,25.9l-5.8-78.6c2.3,0.4,4.6,0.9,7,1.4l0.6,8l53.7,12.6l1.1-6.7
		c2.3,0.3,4.6,0.6,6.9,0.9l-1.1,6.8l53.6,4.3l1.2-9.5c2.3-0.1,4.7-0.2,7-0.3l-1.4,10.5l29.4,4.5l1.8-16.5c2.3-0.1,4.6-0.2,7-0.3
		l-11.9,109.6l29.2,3.8L479,99.6c2.3,0.1,4.6,0.2,6.9,0.4L476,207.6l4.5,0.9l3-30.9l50.9,15.7l0.8-77.9c2.4,1.6,4.6,3.4,6.8,5.3
		l-0.5,50.5l29.3-3.8c0.8,2.5,1.7,5.2,2.4,7.9l-31.8,4.2l-0.7,64.2c-2.2,1.4-4.5,2.7-6.9,4L534,228l-58.8-12.2l-0.7,7.9l-10.2,37.5
		l5.7,11.1c-2.3,0.7-4.7,1.3-7.1,1.9l-6.2-11.9l11-40.2l0.1-0.7l-29.3-3.8l-4.2,39.1l-33.1-5.4l-4.2,36.8l-7.1,1.2l5.6-48.2
		l-0.6-33.5l-54.1-13.2l-2.6,91.1l9.7,3.1l22.5,3.7c-8.8,1.3-17.3,2.4-25.4,3.5l-1,0.1l-35.6-11.5l1.3,13.4c-2.3,0-4.6-0.1-6.9-0.2
		l-1.4-14.7l-50.5-1.8l-1.5,7.4c-2.2-0.7-4.4-1.4-6.6-2.2l1.1-5.4l-16-0.6c-5.6-2.6-11.1-5.5-16.4-8.7l34.1,1.2l5.8-27.5l-39.4-1.7
		l-7.2,23.7c-2-1.4-4-2.9-6-4.4l9.7-31.9l-6.8-6.7l13.5-35l-36.3-8.5L168,224.3c-1.7-3.9-3.1-7.9-4.2-12.1l24.8-100.8
		C191.5,108.2,194.6,105.2,198,102.4L198,102.4z M214.3,235.3l41.4,1.8l41.3,0.1l-2.9-29.7l-72-16.9l-12,31.1l6.5,6.4L214.3,235.3
		L214.3,235.3z M297.8,245.3l-39.5-0.1l-5.7,27.5l48.1,1.7L297.8,245.3L297.8,245.3z M218.1,181.3l10.2-26.4l-40.6-10.4l-6.9,28
		L218.1,181.3L218.1,181.3z M235.1,156.7L225,182.9l68.2,16l-0.8-8.4v-0.1L291,171L235.1,156.7L235.1,156.7z M292.8,101.8l6.5,88
		l0,0l3.1,31.8l30.6,1.2l1.4-47.7l10.2-61.2L292.8,101.8L292.8,101.8z M351.4,115l-10.2,61.1l-0.3,9.8l54.4,13.2l10-79.8L351.4,115z
		 M412.2,120.1l-2.9,22.9l29.7,6.2l2.7-24.5L412.2,120.1L412.2,120.1z M408.3,151.1l-6.7,53.3l0.7,37.1l-0.2,1.6l26.3,4.3l9.8-90
		L408.3,151.1L408.3,151.1z M487.3,210l46.8,9.7l0.2-18l-44.8-13.8L487.3,210L487.3,210z M303.2,229.8l4.4,45.7l23.7,7.6l1.5-52.1
		L303.2,229.8z"/>
	<path class="st2" d="M207.7,380.5c-60.7,1.7-99.7,4.4-99.7,7.4c0,3.4,48.8,6.3,122.4,8C222.3,391.5,214.7,386.4,207.7,380.5
		L207.7,380.5z"/>
	<path class="st4" d="M372.5,378.4c-62.3,0-119.6,0.8-164.8,2.1c7,5.8,14.6,11,22.7,15.4c41,0.9,89.8,1.5,142.1,1.5
		c37.2,0,72.5-0.3,104.6-0.8c13.2-4.9,26.2-10.4,38.9-16.6C474.7,378.9,425.4,378.4,372.5,378.4L372.5,378.4z"/>
	<path class="st5" d="M244,251.8c-24.2,7.9-65.2,12.2-95,21.2s-41,25.9-41,30.7V333c0,7.8,9.9,15.4,24.8,24s28.1,6.8,35.7,6.8h3.2
		c-9.1-25.2,4-53.1,29.2-62.2s53.1,4,62.2,29.2c3.8,10.6,3.8,22.3,0,32.9H520c-9.1-25.2,3.9-53.1,29.2-62.2
		c20.2-7.3,42.9-0.4,55.6,16.9c8.8-8.5,16.9-17.7,24.4-27.4c-0.3-2.1-0.5-4.1-0.5-6.2c0-18.7-36-55.8-41.8-61.7
		s-12.9-12.9-12.2-15.6s8.7-1.3,9.2-3.5s-17.5-5.9-37.7-9.2s-81.5-9.6-122.3-7.4s-63.7,7.9-96.3,23.1S275.8,238.8,244,251.8
		L244,251.8z"/>
	<path class="st6" d="M391.7,326.1c-51.6,0-93.5,1.2-93.5,2.6s41.9,2.6,93.5,2.6s93.5-1.2,93.5-2.6S443.3,326.1,391.7,326.1z"/>
	<path class="st7" d="M628.7,285.6c0-0.2,0-0.4,0-0.6s0-0.6,0-0.9c-7.1,1.4-14,3.9-20.2,7.5c-1.9,1.1-3.8,2.5-5.9,4
		c-4.2,3-8.8,6.4-14.6,8.5c0.6,0.3,1.1,0.6,1.7,0.9c5.4-2.2,9.8-5.4,13.8-8.3c2-1.5,3.9-2.8,5.8-3.9
		C615.2,289.5,621.8,287,628.7,285.6L628.7,285.6z"/>
	<path class="st8" d="M627,276.8c-3.2-8.6-10.2-18.9-17.6-28.2c-8-1.1-11.4-1.3-12.1,0.9c-0.9,2.9,14.2,23.6,22.2,26.2
		C621.9,276.4,624.5,276.8,627,276.8L627,276.8z"/>
	<path class="st3" d="M152.7,271.9c-1.2,0.4-2.4,0.7-3.6,1.1c-21.4,6.5-33.3,17.1-38.2,24.3c12.1,5.1,41.2-2.7,48.5-4.5
		c8.6-2.1,6.6-14.2,4.1-17.3C160.7,272.9,157,271.9,152.7,271.9z"/>
	<path class="st9" d="M580.5,255.9c-6.3,6.9-87.7,6.6-109.8,6.7c-46.1,0-150.1,8.5-150.1,7c0-2.6,15.1-3.3,49.9-6.8
		c17.7-1.8,40.4-3.7,68.8-5.2C523.7,253.1,589.7,245.8,580.5,255.9L580.5,255.9z"/>
	<path class="st10" d="M145.7,277c-4.1,0-10.7,4.3-14.9,9.7s-4.2,9.7-0.2,9.7s10.7-4.3,14.9-9.7S149.8,277,145.7,277z"/>
	<path d="M565.7,302.6c-24.8,0-44.8,20.1-44.8,44.8c0,9.2,2.9,18.3,8.2,25.8c28.1-15.1,52.7-32.8,73-52
		C593.6,309.6,580.1,302.6,565.7,302.6L565.7,302.6z"/>
	<path d="M217.4,302.6c-24.8,0-44.8,20.1-44.8,44.8c0,24.8,20.1,44.8,44.8,44.8s44.8-20.1,44.8-44.8l0,0
		C262.2,322.7,242.1,302.6,217.4,302.6L217.4,302.6L217.4,302.6z"/>
	<path class="st3" d="M538.7,207.4c6.2,5.1,14.9,29.3,16.5,38.2c0,0-100.7,5-115.8,6.8l2.3-55.6
		C441.7,196.9,531.2,201.5,538.7,207.4L538.7,207.4z"/>
	<path class="st10" d="M538.7,207.4c3.9,3.2,8.7,13.8,12.2,23.5c-7.9,3-18.6,3.1-24,6.8c-3.4,2.4-2.9,5.8-0.7,9.3
		c-21.6,1.1-50.5,2.7-69.4,4c11-9.6,3.9-20.6,11.7-26.4c10.9-8,36.8,0,44.2-8.5c2.6-3,3.4-8,3.4-13.4
		C527.6,204.2,536.5,205.8,538.7,207.4L538.7,207.4z M439.7,244.9l0.1-2.9c1.2-0.1,2.3-0.3,3.4-0.8c1.8-0.7,3.2-2,4.1-3.8
		c1.2-2.4,1.5-6,0.3-10.9c-2.1-9.3,2.6-13.4,9.9-15.1c6.5-1.5,15-0.9,22.3-0.3c6.1,0.4,11.3,0.8,13-0.1c3-1.8,2.1-4.9,0.2-8.1
		c-0.5-0.9-1.1-1.8-1.7-2.7l3.6,0.3c0.2,0.3,0.4,0.7,0.6,1c2.6,4.5,3.8,9.1-1.3,12c-2.4,1.4-8,1-14.6,0.5
		c-7.1-0.5-15.4-1.1-21.5,0.3c-5.7,1.3-9.4,4.5-7.7,11.6c1.3,5.6,0.9,9.8-0.5,12.8c-1.1,2.4-3.1,4.2-5.6,5.2
		C442.8,244.5,441.3,244.9,439.7,244.9L439.7,244.9z"/>
	<path class="st3" d="M425.4,196.9L415,254.6c0,0-120.1,11.3-121.5,9.9s8.5-28.9,9.3-30.8S348.1,202.9,425.4,196.9L425.4,196.9z"/>
	<path class="st10" d="M425.4,196.9l-2.8,15.3c-12.2,1.2-24.6,1.6-26.6,6.8c-4.9,12.9,15.9,12.5,11.3,29.9c-0.7,2.8-2.4,5.3-4.7,6.9
		c-30.7,2.9-108,9.9-109.1,8.8c-0.4-0.4,0-2.4,0.8-5.2c24.8-8.9,55.1-6.6,55.1-13.7c0-9.6-21.1-7.8-18.4-18.7
		c2.7-10.6,46-11.8,48.2-23.2C394.4,200.3,409.9,198,425.4,196.9L425.4,196.9z M299.8,241.9c0.6-1.8,1.2-3.4,1.6-4.7
		c3.5-1.6,7.1-1.4,10.1-1.1c2.4,0.2,4.3,0.3,4.9-0.9s-0.6-3.3-1.9-5.5c-0.5-0.8-1-1.7-1.5-2.6c0.8-0.4,1.7-0.9,2.5-1.4
		c0.4,0.8,0.9,1.7,1.4,2.5c1.7,2.9,3.3,5.6,2,8.3c-1.5,3-4.2,2.8-7.7,2.5S303.8,238.3,299.8,241.9L299.8,241.9z"/>
	<path class="st3" d="M297.6,237.8c0,0-38.9,24-40.6,26.9s33.4,0,33.4,0C291.9,255.4,294.3,246.4,297.6,237.8L297.6,237.8z"/>
	<path class="st5" d="M324.5,251.8c-0.4,7.4-6.3,9.3-10.4,8.8s-14.3-4-14.3-8.8s5.9-10,12.4-10S324.9,245.2,324.5,251.8z"/>
	<path class="st3" d="M553.4,260c0.1,3,3.5,4.4-7,4.1s-20.3,2.3-19.5-0.9s7.9-5.3,13.5-5.3S554,256.4,553.4,260L553.4,260z"/>
	<path class="st3" d="M418.1,268.4c0.1,3,3.5,4.4-7,4.1s-20.3,2.3-19.5-0.9s7.9-5.3,13.5-5.3S418.7,264.8,418.1,268.4L418.1,268.4z"
		/>
	<path class="st11" d="M555.1,245.6c0,0,8.1,30.9,3.5,39.3s-16.4,9.5-32.5,24.8s-15.6,35.3-20.4,37.7s-85.2,2.3-85.2,2.3
		s-123.3,4.5-127,1.1s-3.7-40.3-3.7-50.7s-0.5-29.2,3.6-35.8 M433.6,196.9l-6.1,55.6c-2.1,8.3-7,57.6-7,97.3"/>
	<path class="st9" d="M114.5,315.3c0,1.1,32.6,4.6,39.4,2.1s6.2-7.3-1-7.3s-15.2,3-23.5,3.5S114.4,314.2,114.5,315.3L114.5,315.3z"
		/>
	<path class="st3" d="M131.6,330.3c0,0-0.9,7.6-0.2,10.1s1.8,4.9,4.8,4.9s7.7-4,7.7-10S131.6,330.3,131.6,330.3L131.6,330.3z"/>
	<path class="st12" d="M126.2,328c7.8,0.8,16.3-1,19.2,2.9c2.6,3.4,2.1,7.9-2.8,14.4"/>
	<path class="st13" d="M565.7,318.9c-15.8,0-28.6,12.8-28.6,28.6c0,6.5,2.2,12.7,6.2,17.8c16.4-9.7,32-20.7,46.5-33
		C584.6,323.9,575.5,318.9,565.7,318.9L565.7,318.9z"/>
	<path class="st14" d="M587,334.6c-2.9-4.8-7.4-8.5-12.6-10.4c2.4,4.3,3.7,9.1,3.7,14c0,1.3-0.1,2.6-0.3,3.8
		C580.9,339.5,584,337.1,587,334.6L587,334.6z"/>
	<path class="st13" d="M217.4,318.9c-15.8,0-28.6,12.8-28.6,28.6s12.8,28.6,28.6,28.6s28.6-12.8,28.6-28.6l0,0
		C245.9,331.6,233.2,318.9,217.4,318.9z"/>
	<path class="st14" d="M202.5,367.3c11,8.2,26.6,6,34.8-5c7.1-9.5,6.5-22.8-1.5-31.6c4.8,15-3.5,31.1-18.6,35.9
		C212.5,368.1,207.4,368.4,202.5,367.3z"/>
	<path class="st15" d="M159,279c-2.7,0-7.1,2.9-9.9,6.4s-2.8,6.4-0.1,6.4s7.1-2.9,9.9-6.4S161.7,279,159,279z"/>
	<path class="st16" d="M306.2,255.5c2.6,1.5,4.6,2,2.2,8.4s-3.9,7.3-10.8,7.3s-6.4-4.9-2.1-9.4S303.1,254.1,306.2,255.5L306.2,255.5
		z"/>
	<path class="st17" d="M424.9,138.4c4,0,7.3,0.6,7.3,1.5s-3.3,1.5-7.3,1.5s-7.3-0.6-7.3-1.5S420.9,138.4,424.9,138.4z"/>
	<path class="st8" d="M424.9,66.8c11.8,0,21.4,9.6,21.4,21.4c0,11.8-21.4,51.6-21.4,51.6s-21.4-39.8-21.4-51.6
		C403.5,76.4,413.1,66.9,424.9,66.8z"/>
	<path class="st18" d="M424.9,81c4,0,7.3,3.3,7.3,7.3c0,4-3.3,7.3-7.3,7.3c-4,0-7.3-3.3-7.3-7.3S420.9,81,424.9,81L424.9,81z"/>
	<path d="M199.6,127.1c0,0-0.3,9.4-3.6,12.2s-4.5-12.3-4.5-12.3L199.6,127.1z"/>
	<path class="st2" d="M181.8,410.6h-2.3c-50.2,0-90.8,2.8-90.8,6.3s40.7,6.3,90.8,6.3c17.8,0,34.4-0.4,48.4-1l0,0
		c25.4-1.1,42.4-3.1,42.4-5.3C270.3,413.4,230.9,410.6,181.8,410.6z"/>
	<path class="st19" d="M195.5,182c0-3.8,0.2-8.1-1.9-11.5s-12-1.3-19.4-1.5s-25-5-27.6,1.3s0,10.8,0,10.8c-4.1,3.5-7.6,7.5-10.5,12
		c-4,6.6-7.2,19.1-9.4,23.4s-4.3,14.9-3,22.2s1,15.5,3.7,18.2c2.7,2.7,11.1,5.5,23.3,6.2s39,6.7,39-10S201.5,225.6,195.5,182
		L195.5,182z"/>
	<path class="st20" d="M195.5,182c0-3.1,0.1-6.4-0.9-9.4c-3.7,0.1-8.2,0.6-12,0.4c-7.4-0.3-25-5-27.6,1.3s0,10.8,0,10.8
		c-4.1,3.5-7.6,7.5-10.5,12c-4,6.6-7.2,19.1-9.4,23.4s-4.3,14.9-3,22.2c1.3,7.1,1,15.1,3.6,18c4.9,1.3,10,2.1,15.1,2.3
		c12.2,0.7,39,6.7,39-10S201.6,225.6,195.5,182L195.5,182z"/>
	<path class="st21" d="M239.7,407.8c0,0,1.1,9.3-7.7,9c-5.4-0.2-10.7-0.7-16-1.5v1.5h-14.1v-6.6L239.7,407.8L239.7,407.8z"/>
	<polygon class="st19" points="204.5,277.2 217.2,392.4 202.7,392.4 181.1,310.2 163.2,397 148.6,397 148.5,277.2 204.5,277.2 	"/>
	<path class="st22" d="M197.3,227.9c3.1,8.9,9.3,17.3,19.4,16.5s0-27.3,0-27.3L197.3,227.9L197.3,227.9z"/>
	<path class="st23" d="M219.7,226.6c-0.8-3.2-1.8-6.4-3-9.6l-9.2,5.1c-0.1,6,1.5,12.2,8.9,12.5L219.7,226.6L219.7,226.6z"/>
	<path class="st22" d="M169,159l-2.3,27.8H186c0,0-4.4-15.3-4.4-23.2L169,159z"/>
	<path class="st24" d="M169,159l-0.5,5.8c4.4,4.5,10.2,8.6,14.6,10.4c-0.9-3.8-1.4-7.6-1.6-11.5L169,159z"/>
	<path class="st22" d="M196.1,121.9c0,0,7,46.1-15.9,46.1S160,136.6,160,128.6v-6.7L196.1,121.9z"/>
	<path d="M157.3,140.6c7.1,0.6,12.3-4.1,12.3-8c-0.1-2.7-0.9-5.3-2.2-7.7c5.2,5.1,12.3,8,19.6,7.9c12.2-0.2,17.6-6.5,16.9-14.5
		c-0.5-5.2-5.2-9.4-9.5-9.4s-11.9,3.2-17.2,3.2s-11.2-2.3-14.9,0.9s-3.4,6.3-3.4,6.3s-9.1,2.3-9.1,10.1s5.9,11.6,7.3,11.5
		L157.3,140.6z"/>
	<path d="M177,143.4c0.8,0,1.5,0.6,1.5,1.4s-0.6,1.5-1.4,1.5s-1.5-0.6-1.5-1.4c0,0,0,0,0-0.1C175.6,144.1,176.2,143.4,177,143.4z"/>
	<path d="M191,143.6c0.8,0,1.5,0.6,1.5,1.4s-0.6,1.5-1.4,1.5s-1.5-0.6-1.5-1.4c0,0,0,0,0-0.1C189.6,144.3,190.2,143.6,191,143.6z"/>
	<path class="st24" d="M185.7,143.8c2.3,4.1,3.8,7.3-3.2,8.6c-0.3,0.1-0.6-0.1-0.6-0.4c0-0.2,0.2-0.5,0.6-0.5c5.9-1,4.2-3.7,2.2-7.2
		c-0.1-0.2,0-0.5,0.3-0.6C185.2,143.5,185.5,143.6,185.7,143.8L185.7,143.8z"/>
	<path class="st25" d="M144.1,192.4c1.9-2.9,23.4-14.3,23.4-14.3s3.4,7.1,10,7.1s6.1-7.9,6.1-7.9s22.7,6,24.8,8.4
		s11.6,38.5,11.6,38.5s-6.2,4.8-18.3,4.1c0,0,2.9,29.7,3.9,36.1s3,11,2.5,11.8c-3.9,4.9-16.6,6.7-22.2,7.5
		c-13.5,1.8-28.7-0.4-40.8-6.7c-1.6-0.8,2.4-34.9,3.6-41c0,0-14.7-3.5-14.8-4.5S142.2,194.9,144.1,192.4z"/>
	<path class="st26" d="M210.3,227.8c-1.7,0.3-3.3,0.4-5,0.5l-0.8-31.1C210.7,207.6,210.5,223.4,210.3,227.8L210.3,227.8z"/>
	<path class="st26" d="M165.2,179.3l0.5-0.3c1.1,2.2,2.8,4.2,4.8,5.6c2.1,1.7,4.7,2.5,7.4,2.3c5-0.6,6.6-3.2,7-5.8
		c0.2-1.2,0.1-2.4-0.1-3.5l0.7,0.2c0.2,1.1,0.2,2.3,0.1,3.4c-0.4,2.8-2.2,5.6-7.5,6.2c-2.8,0.2-5.6-0.7-7.9-2.5
		C168,183.6,166.3,181.6,165.2,179.3L165.2,179.3z"/>
	<path class="st22" d="M213,230.7c-1.4,7,1,13.3,4.6,13.5s7.1-1.5,12.5-11.4s10.4-35.4,11.3-36.8s8.8-0.1,11.1-2.9s3.8-15.7,0-15.7
		s-16.1,5.1-18.7,15.2S220,210.8,213,230.7z"/>
	<path class="st26" d="M215.1,384c5.2,1.9,2.4,12.3,3.6,14.3s4.5,3.3,9.3,2.3s12.9-0.1,12.9,5.7s-2.1,7.9-12.9,7.9s-25.9,0-26.5-2
		s-0.7-19.8,0.7-21.8c0.4-0.5,4,0.5,5.4-0.7C209.7,387.9,210.3,383.8,215.1,384L215.1,384z"/>
	<path d="M230.4,400.3c-2.4,0.3-3.9,2.2-4.9,3.9c-0.2,0.3-0.5,0.4-0.8,0.3c-0.3-0.1-0.4-0.3-0.4-0.6c0,0,0-0.1,0-0.1
		c1.2-2.2,3-4.2,6-4.6c0.3-0.1,0.6,0.1,0.6,0.4c0.1,0.3-0.1,0.6-0.4,0.6C230.5,400.3,230.4,400.3,230.4,400.3L230.4,400.3z"/>
	<path d="M224.9,400.8c-1.9,0.3-3.5,1.4-4.7,2.9c-0.2,0.3-0.5,0.4-0.8,0.3c-0.3-0.1-0.4-0.3-0.3-0.6c0,0,0-0.1,0-0.1
		c1.4-1.9,3.5-3.2,5.8-3.5c0.3-0.1,0.6,0.1,0.6,0.4c0.1,0.3-0.1,0.6-0.4,0.6C225.1,400.8,225,400.8,224.9,400.8L224.9,400.8z"/>
	<path d="M220.2,399.7c-0.9-0.1-2.4,1.2-2.9,1.7c-0.2,0.3-0.6,0.3-0.9,0.2c-0.2-0.1-0.4-0.4-0.3-0.6c0,0,0-0.1,0.1-0.1
		c1-0.9,2.6-2.3,4.3-2.1c0.3,0,0.5,0.3,0.5,0.6c0,0,0,0,0,0.1C220.8,399.7,220.5,399.8,220.2,399.7L220.2,399.7z"/>
	<path d="M211.4,399.7c0.9-1.5,2-2.8,3.3-4c-4-0.3-7.1-1.9-3.6-3.2c1.4-0.5,3.7,0.2,6.1,1.1c4-2.7,7.7-3.4,6-0.5
		c-0.7,1-1.7,1.7-2.8,2c1.3,0.7,2.6,1.4,3.8,2.3c0.2,0.2,0.2,0.5,0,0.7c0,0-0.1,0.1-0.1,0.1c-0.3,0.2-0.6,0.2-0.9-0.1
		c-1.5-0.9-3-1.8-4.5-2.5c-0.7,0.1-1.4,0.2-2.1,0.2c-1.5,1.2-2.9,2.6-4.1,4.2c-0.1,0.3-0.4,0.5-0.8,0.4c-0.3,0-0.5-0.3-0.5-0.6
		C211.4,399.8,211.4,399.8,211.4,399.7L211.4,399.7z M216,394.5l0.2-0.1c-2.5-1-4.9-1.6-5.2-0.5C211.4,394.4,213.7,394.6,216,394.5
		L216,394.5z M218.5,394.2l0.1,0c1.9-0.3,3.5-1,3.6-2C220.9,392.6,219.6,393.3,218.5,394.2L218.5,394.2z"/>
	<path class="st19" d="M195.6,178.2c4.1,1,6.3,3.9,8.2,10.7s4.9,26.4,4,36.8c-0.7,7-2.1,13.9-4.2,20.6c0,0-2-20-2.5-24.4
		s-5.6-30.9-7.9-36.5s-3.9-6.4-3.5-7.2S195.6,178.2,195.6,178.2L195.6,178.2z"/>
	<path class="st21" d="M144.7,410.7l-2.7,0.1c0.2,4.5-1,10.9,13.1,11.1s13.1-4.6,13.2-9.6L144.7,410.7L144.7,410.7z"/>
	<path class="st19" d="M155.9,181.4c3.9-2,5.7-1.8,6.2-1.2c2.6,3.4,4.2,7.5,4.7,11.7c0.8,6.8,2.1,21.4,1.5,30.4
		s-10.6,29.3-21.7,30.6v-17.5c0.9,0.2,1.7,0.4,2.1,0.5c2.8,0.4,9.5,0.6,12.3-0.6c0,0,1.5-10.7,1.5-16.1c0-4.4-2.9-24.6-5.5-28.5
		s-3.9-4.7-4-5.3S153.3,182.9,155.9,181.4L155.9,181.4z"/>
	<path class="st22" d="M154.2,143.7c0,3.1,2.5,5.2,5.7,5.2s4.3-4.3,4.3-5.3s-1.4-4.9-5-4.9c-2.6-0.2-4.8,1.8-5,4.4
		C154.2,143.4,154.2,143.6,154.2,143.7L154.2,143.7z"/>
	<path class="st24" d="M158.6,140.9c1.9-0.2,3.9,0.9,3.7,3.1c0,0.4-2.4,0.4-1.9,1c0.5,0.6,1.4,0.6,2,0.2c-0.1,0.8-2.4,1.4-2.9,0
		c-0.2-0.7,0.3-1.6,1.7-1.6c-0.1-1.2-1-2.1-2.2-2c-0.1,0-0.2,0-0.2,0c-2.1,0.3-2.4,1.3-2.5,1.9C155.9,142.6,156.5,141.1,158.6,140.9
		L158.6,140.9z"/>
	<path class="st22" d="M137.8,233c-1.2,3.9-2.5,10.1-1,15.4c2.4,8.4,18.8,51,18.8,51l6.8-4.8c0,0-8.8-44.5-9.2-48.3
		c1.8-3.2,3.1-6.6,4-10.1c-2.9,0.1-5.7-0.1-8.5-0.6C146.8,235.2,141.1,234,137.8,233L137.8,233z"/>
	<path class="st6" d="M238.1,160.4l13.9,1.1c0.9,0,1.7,0.7,1.7,1.6c0,0,0,0,0,0.1l-2.8,25.3c-0.2,0.9-1.1,1.5-2,1.4l-13.9-1.1
		c-0.9,0-1.7-0.7-1.7-1.6c0,0,0,0,0,0l2.8-25.3C236.3,160.9,237.2,160.3,238.1,160.4L238.1,160.4z"/>
	<path d="M250.3,162.8L250.3,162.8c0.7,0,1.3,0.6,1.3,1.3c0,0,0,0,0,0l-0.4,3.8c-0.2,0.7-0.9,1.2-1.6,1.1l0,0
		c-0.7,0-1.3-0.6-1.3-1.3c0,0,0,0,0,0l0.4-3.8C248.9,163.2,249.6,162.7,250.3,162.8z"/>
	<path class="st13" d="M250.2,163.5c0.5,0,0.8,0.3,0.8,0.8c0,0,0,0,0,0c-0.1,0.5-0.5,0.8-1,0.7c-0.5,0-0.8-0.3-0.8-0.8c0,0,0,0,0,0
		C249.4,163.7,249.8,163.4,250.2,163.5z"/>
	<path class="st3" d="M249.8,167.3c0.3,0,0.5,0.2,0.5,0.5c0,0,0,0,0,0c-0.1,0.3-0.3,0.5-0.6,0.4c-0.3,0-0.5-0.2-0.5-0.5c0,0,0,0,0,0
		C249.3,167.4,249.6,167.3,249.8,167.3z"/>
	<path class="st13" d="M250,165.4c0.5,0,0.8,0.3,0.8,0.8c0,0,0,0,0,0c-0.1,0.5-0.5,0.8-1,0.7c-0.5,0-0.8-0.3-0.8-0.8c0,0,0,0,0,0
		C249.1,165.6,249.5,165.3,250,165.4z"/>
	<path class="st26" d="M157,391.7c10.1,0.4,6.9,8.8,6.6,12.4s4.6,4.8,4.8,8.1s-2.8,7.1-12.9,7.1s-13.5-3.7-13.5-9.1s5.5-6,5.5-9.3
		S144.6,392,157,391.7L157,391.7z"/>
	<path d="M150.3,408.8c2.2-1.4,5.9-1.2,8.1,0.1c0.2,0.1,0.2,0.4,0.1,0.6c0,0-0.1,0.1-0.1,0.1c-0.3,0.2-0.6,0.2-0.9,0
		c-1.6-0.9-4.8-1.1-6.4-0.1c-0.3,0.2-0.6,0.2-0.9,0c-0.2-0.1-0.2-0.4-0.1-0.6C150.2,408.9,150.2,408.9,150.3,408.8L150.3,408.8z"/>
	<path d="M151.1,405.4c1.9-0.9,5-1.1,6.7,0.2c0.2,0.1,0.2,0.4,0.1,0.6c0,0-0.1,0.1-0.1,0.1c-0.3,0.2-0.6,0.2-0.9,0
		c-1.1-0.8-3.8-0.6-5-0.1c-0.3,0.2-0.6,0.2-0.9,0c-0.2-0.2-0.2-0.5,0-0.6C151,405.5,151.1,405.5,151.1,405.4L151.1,405.4z"/>
	<path d="M151.2,402.7c1.3-1.5,5.3-1.7,7,0c0.2,0.2,0.1,0.5-0.1,0.6c0,0-0.1,0-0.1,0.1c-0.3,0.2-0.6,0.1-0.9-0.1c-1-1-4.1-0.8-4.8,0
		c-0.2,0.3-0.5,0.4-0.8,0.2c-0.2-0.1-0.4-0.3-0.3-0.6C151.2,402.9,151.2,402.9,151.2,402.7L151.2,402.7z"/>
	<path d="M148.5,403.1c1.4-1.6,2.9-3.1,4.7-4.2c-3.3-0.9-5.6-2.6-3.9-3.9c1.5-1.1,3.9,0.8,6,2.7c5.3-2.6,9.6-1.6,7.2,0.4
		c-1.5,1.1-3.4,1.6-5.3,1.4c0.5,0.5,1.1,1,1.8,1.4c1.3,0.6,2.6,1.1,4,1.4c0.3,0,0.5,0.3,0.4,0.6c0,0,0,0,0,0.1
		c-0.1,0.3-0.5,0.4-0.8,0.3l-2.2-0.6c-1.9-0.7-3.7-1.8-5.2-3.3c-2,1.2-3.9,2.6-5.6,4.2c-0.2,0.3-0.5,0.4-0.8,0.2
		C148.6,403.7,148.4,403.4,148.5,403.1C148.5,403.1,148.5,403.1,148.5,403.1L148.5,403.1z M153.9,398c-1.4-1.3-2.5-2.3-3.7-2.3
		c0,0-0.1,0-0.1,0.1C149.8,396.7,151.6,397.5,153.9,398L153.9,398z M156.9,398.4c2.2,0.1,4.2-0.2,4.8-1.1
		C161.3,396.4,159.2,397.1,156.9,398.4z"/>
	<path class="st26" d="M154.5,236.3c1.4-2.5,6.4-11.1,7.1-25.4c0.4,2.8,0.7,5.6,0.8,8.4c0,5.4-1.5,16.1-1.5,16.1
		C158.9,236.1,156.7,236.4,154.5,236.3L154.5,236.3z"/>
	<path d="M165.3,292.4c-3.6,4.3-6.7,7.4-13.2,8.1c-0.3,0.1-0.6-0.1-0.6-0.4c-0.1-0.3,0.1-0.6,0.4-0.6c0.1,0,0.2,0,0.3,0
		c5.9-0.6,8.8-3.8,12.1-7.6c0.2-0.3,0.6-0.3,0.9-0.2C165.3,291.9,165.4,292.1,165.3,292.4C165.3,292.4,165.3,292.4,165.3,292.4
		L165.3,292.4z"/>
	<path class="st22" d="M253.3,177.7c0,0-6.4-5.4-7.7-4.2s5.6,5.9,5.6,5.9s-7.4-4-7.7-2.3s7.2,6.2,7.2,6.2s-6.8-2.1-7.2-0.2
		s6.4,3,6.4,3s-7,0-7.4,1.1s9.1,3.4,9.1,3.4L253.3,177.7z"/>
	<path d="M173.9,140.2c0.1-0.1,0.2-0.3,0.4-0.4l0.2-0.2c0.1-0.1,0,0,0,0c0,0,0.1,0,0.1-0.1c0.1-0.1,0.3-0.2,0.4-0.3l0.2-0.1l0.1-0.1
		h0.1c-0.1,0.1,0,0,0,0h0.1l0.3-0.1l0.5-0.1h0.1l0,0h0.3c0.2,0,0.4,0,0.5,0c0.5,0,0.8-0.4,0.8-0.9c0,0,0,0,0,0
		c0-0.5-0.4-0.8-0.9-0.9c-1.7-0.1-3.3,0.6-4.5,1.9c-0.4,0.3-0.4,0.8-0.1,1.2s0.8,0.4,1.2,0.1C173.8,140.3,173.8,140.3,173.9,140.2
		L173.9,140.2z"/>
	<path d="M189.2,141.6c0.2-0.1,0.3-0.1,0.5-0.1c0.1,0,0.3-0.1,0.1,0c0.1,0,0.2,0,0.3,0h0.5h0.3c0.2,0-0.2,0,0.1,0l0.5,0.1
		c0.2,0,0.3,0.1,0.5,0.2c-0.2-0.1,0.1,0,0.1,0l0.2,0.1c0.2,0.1,0.3,0.2,0.4,0.3c0.4,0.2,0.9,0.1,1.2-0.3c0.2-0.4,0.1-0.9-0.3-1.2
		c-1.4-1-3.2-1.2-4.8-0.8c-0.5,0.1-0.8,0.5-0.7,1c0.1,0.5,0.5,0.8,1,0.7C189,141.6,189.1,141.6,189.2,141.6L189.2,141.6z"/>
	<path d="M177.6,155.1c2.6,2.1,6.2,2.4,9.1,0.8c0.4-0.3,0.5-0.8,0.2-1.2c-0.2-0.3-0.7-0.4-1.1-0.3c-2.2,1.3-5,1.1-7-0.5
		c-0.3-0.3-0.9-0.3-1.2,0C177.2,154.2,177.2,154.7,177.6,155.1L177.6,155.1z"/>
	<path class="st27" d="M175.2,225.6L175.2,225.6c-0.2-1.6,0-3.2,0.5-4.7c0.1-0.2,0.2-0.5,0.3-0.7c0.5-1.2,1.2-2.2,2.1-3.1
		c0.1-0.1,0.2,0.1,0.2,0.1l0,0c-0.1,0.2-0.2,0.4-0.4,0.7s-0.2,0.4-0.3,0.7c-0.5,1.3-0.6,2.7-0.4,4l0,0c0.2,2.1,1.2,4,2.8,5.4
		c1.5,1.3,3.5,1.9,5.4,1.7l0,0c2-0.3,3.7-1.4,4.8-3c1.2-1.7,1.7-3.8,1.4-5.9l0,0l0,0c-0.1-0.9-0.4-1.9-0.8-2.7
		c-0.1-0.1-0.1-0.3-0.2-0.4c-0.4-0.7-0.8-1.3-1.4-1.8c-0.1-0.1,0-0.2,0.1-0.2l0,0c0.3,0.2,0.7,0.5,1,0.7c0.4,0.2,0.7,0.5,1,0.8
		c1.6,1.6,2.7,3.7,2.9,6l0,0c0.3,2.6-0.4,5.3-1.9,7.4c-1.5,2.1-3.8,3.4-6.4,3.8l0,0c-2.6,0.3-5.1-0.4-7.1-2.1
		C176.9,230.7,175.6,228.3,175.2,225.6L175.2,225.6z"/>
	<polygon class="st27" points="179.3,213.9 181.6,211.5 180.2,208.4 183.1,210 185.5,207.7 184.9,211 187.9,212.6 184.6,213.1 
		184,216.5 182.6,213.4 179.3,213.9 	"/>
</g>
</svg>
