<?xml version="1.0" encoding="utf-8"?>
<!-- Generator: Adobe Illustrator 21.1.0, SVG Export Plug-In . SVG Version: 6.00 Build 0)  -->
<svg version="1.1" id="Layer_1" xmlns="http://www.w3.org/2000/svg" xmlns:xlink="http://www.w3.org/1999/xlink" x="0px" y="0px"
	 viewBox="0 0 588 380" style="enable-background:new 0 0 588 380;" xml:space="preserve">
<style type="text/css">
	.st0{fill:#97FFC8;}
	.st1{fill:#4AFF97;}
	.st2{fill:#E6E6E6;}
	.st3{fill:#FFFFFF;}
	.st4{fill:#73FFB2;}
	.st5{fill:#FFCC00;}
	.st6{fill:#FFB900;}
	.st7{fill:#EA8E00;}
	.st8{fill:#FF4646;}
	.st9{fill:#FFE45F;}
	.st10{fill:#F1F1F1;}
	.st11{fill:none;stroke:#EA8E00;stroke-width:2.83;stroke-miterlimit:22.93;}
	.st12{fill:none;stroke:#EA8E00;stroke-width:2.13;stroke-miterlimit:22.93;}
	.st13{fill:#333333;}
	.st14{fill:#666666;}
	.st15{fill:#FFFF66;}
	.st16{fill:#FFAA00;}
	.st17{fill:#CCCCCC;}
	.st18{fill:#95B9FF;}
	.st19{fill:#FF4848;}
	.st20{fill:#FF1D1D;}
	.st21{fill:#663300;}
	.st22{fill:#FFCC99;}
	.st23{fill:#FFBA87;}
	.st24{fill:#FF9966;}
	.st25{fill:#F2F2F2;}
	.st26{fill:#E8E8E8;}
	.st27{fill:#E20613;}
</style>
<title>3725832</title>
<g id="OBJECTS">
	<path class="st0" d="M285.1,42.7c133.6-45.3,264.5-15.5,292.4,66.6S519.7,294.8,386,340.1s-264.5,15.5-292.4-66.6
		S151.5,88,285.1,42.7z"/>
	<path class="st1" d="M546.9,80.6c16.3-5.5,32.1-2.5,35.3,6.9s-7.5,21.4-23.8,26.9s-32.1,2.5-35.3-6.9S530.6,86.2,546.9,80.6z"/>
	<path class="st1" d="M523,60.3c8.3,2.8,13.4,9.9,11.4,15.8s-10.4,8.3-18.7,5.5s-13.4-9.9-11.4-15.8S514.7,57.4,523,60.3z"/>
	<path class="st1" d="M549,60.1c4.5-1.5,9-0.1,10.1,3.2s-1.6,7.1-6.1,8.6s-9,0.1-10.1-3.2S544.5,61.6,549,60.1z"/>
	<path class="st2" d="M70.7,178.8c-6.5,12.4-17.5,19.5-24.6,15.8s-7.6-16.8-1.1-29.2s17.5-19.5,24.6-15.8S77.2,166.4,70.7,178.8
		L70.7,178.8z"/>
	<path class="st2" d="M43.7,129.2c6.6,2.6,10.4,8.4,8.6,13.1s-8.6,6.3-15.2,3.7s-10.4-8.4-8.6-13.1S37.2,126.7,43.7,129.2z"/>
	<path class="st2" d="M58.4,115.8c1.8-3.7,5.4-5.6,8.1-4.3s3.5,5.4,1.7,9s-5.4,5.6-8.1,4.3S56.7,119.4,58.4,115.8z"/>
	<path class="st2" d="M230.4,30.9c113.3,38.1,227.3-44.7,263,88.2c20.8,77.7-137,104.5-229.4,116.4S89.7,206,81,142.9
		S117-7.3,230.4,30.9L230.4,30.9z"/>
	<path class="st3" d="M117,42.4l-8.4,34.2l100.8,25.9l-5.8-78.6c2.3,0.4,4.6,0.9,7,1.4l0.6,8l53.7,12.6l1.1-6.7
		c2.3,0.3,4.6,0.6,6.9,0.9l-1.1,6.8l53.6,4.3l1.2-9.5c2.3-0.1,4.7-0.2,7-0.3l-1.4,10.5l29.4,4.5l1.8-16.5c2.3-0.1,4.6-0.2,7-0.3
		l-11.9,109.6l29.2,3.8L398,39.6c2.3,0.1,4.6,0.2,6.9,0.4L395,147.6l4.5,0.9l3-30.9l50.9,15.7l0.8-77.9c2.4,1.6,4.6,3.4,6.8,5.3
		l-0.5,50.5l29.3-3.8c0.8,2.5,1.7,5.2,2.4,7.9l-31.8,4.2l-0.7,64.2c-2.2,1.4-4.5,2.7-6.9,4L453,168l-58.8-12.2l-0.7,7.9l-10.2,37.5
		l5.7,11.1c-2.3,0.7-4.7,1.3-7.1,1.9l-6.2-11.9l11-40.2l0.1-0.7l-29.3-3.8l-4.2,39.1l-33.1-5.4l-4.2,36.8l-7.1,1.2l5.6-48.2
		l-0.6-33.5l-54.1-13.2l-2.6,91.1l9.7,3.1l22.5,3.7c-8.8,1.3-17.3,2.4-25.4,3.5l-1,0.1l-35.6-11.5l1.3,13.4c-2.3,0-4.6-0.1-6.9-0.2
		l-1.4-14.7l-50.5-1.8l-1.5,7.4c-2.2-0.7-4.4-1.4-6.6-2.2l1.1-5.4l-16-0.6c-5.6-2.6-11.1-5.5-16.4-8.7l34.1,1.2l5.8-27.5l-39.4-1.7
		l-7.2,23.7c-2-1.4-4-2.9-6-4.4l9.7-31.9l-6.8-6.7l13.5-35l-36.3-8.5L87,164.3c-1.7-3.9-3.1-7.9-4.2-12.1l24.8-100.8
		C110.5,48.2,113.6,45.2,117,42.4L117,42.4z M133.3,175.3l41.4,1.8l41.3,0.1l-2.9-29.7l-72-16.9l-12,31.1l6.5,6.4L133.3,175.3
		L133.3,175.3z M216.8,185.3l-39.5-0.1l-5.7,27.5l48.1,1.7L216.8,185.3L216.8,185.3z M137.1,121.3l10.2-26.4l-40.6-10.4l-6.9,28
		L137.1,121.3L137.1,121.3z M154.1,96.7L144,122.9l68.2,16l-0.8-8.4v-0.1L210,111L154.1,96.7L154.1,96.7z M211.8,41.8l6.5,88l0,0
		l3.1,31.8l30.6,1.2l1.4-47.7l10.2-61.2L211.8,41.8L211.8,41.8z M270.4,55l-10.2,61.1l-0.3,9.8l54.4,13.2l10-79.8L270.4,55z
		 M331.2,60.1L328.3,83l29.7,6.2l2.7-24.5L331.2,60.1L331.2,60.1z M327.3,91.1l-6.7,53.3l0.7,37.1l-0.2,1.6l26.3,4.3l9.8-90
		L327.3,91.1L327.3,91.1z M406.3,150l46.8,9.7l0.2-18l-44.8-13.8L406.3,150L406.3,150z M222.2,169.8l4.4,45.7l23.7,7.6l1.5-52.1
		L222.2,169.8z"/>
	<path class="st2" d="M126.7,320.5C66,322.2,27,324.9,27,327.9c0,3.4,48.8,6.3,122.4,8C141.3,331.5,133.7,326.4,126.7,320.5
		L126.7,320.5z"/>
	<path class="st4" d="M291.5,318.4c-62.3,0-119.6,0.8-164.8,2.1c7,5.8,14.6,11,22.7,15.4c41,0.9,89.8,1.5,142.1,1.5
		c37.2,0,72.5-0.3,104.6-0.8c13.2-4.9,26.2-10.4,38.9-16.6C393.7,318.9,344.4,318.4,291.5,318.4L291.5,318.4z"/>
	<path class="st5" d="M163,191.8c-24.2,7.9-65.2,12.2-95,21.2s-41,25.9-41,30.7V273c0,7.8,9.9,15.4,24.8,24s28.1,6.8,35.7,6.8h3.2
		c-9.1-25.2,4-53.1,29.2-62.2s53.1,4,62.2,29.2c3.8,10.6,3.8,22.3,0,32.9H439c-9.1-25.2,3.9-53.1,29.2-62.2
		c20.2-7.3,42.9-0.4,55.6,16.9c8.8-8.5,16.9-17.7,24.4-27.4c-0.3-2.1-0.5-4.1-0.5-6.2c0-18.7-36-55.8-41.8-61.7
		s-12.9-12.9-12.2-15.6s8.7-1.3,9.2-3.5s-17.5-5.9-37.7-9.2s-81.5-9.6-122.3-7.4s-63.7,7.9-96.3,23.1S194.8,178.8,163,191.8
		L163,191.8z"/>
	<path class="st6" d="M310.7,266.1c-51.6,0-93.5,1.2-93.5,2.6s41.9,2.6,93.5,2.6s93.5-1.2,93.5-2.6S362.3,266.1,310.7,266.1z"/>
	<path class="st7" d="M547.7,225.6c0-0.2,0-0.4,0-0.6s0-0.6,0-0.9c-7.1,1.4-14,3.9-20.2,7.5c-1.9,1.1-3.8,2.5-5.9,4
		c-4.2,3-8.8,6.4-14.6,8.5c0.6,0.3,1.1,0.6,1.7,0.9c5.4-2.2,9.8-5.4,13.8-8.3c2-1.5,3.9-2.8,5.8-3.9
		C534.2,229.5,540.8,227,547.7,225.6L547.7,225.6z"/>
	<path class="st8" d="M546,216.8c-3.2-8.6-10.2-18.9-17.6-28.2c-8-1.1-11.4-1.3-12.1,0.9c-0.9,2.9,14.2,23.6,22.2,26.2
		C540.9,216.4,543.5,216.8,546,216.8L546,216.8z"/>
	<path class="st3" d="M71.7,211.9c-1.2,0.4-2.4,0.7-3.6,1.1c-21.4,6.5-33.3,17.1-38.2,24.3c12.1,5.1,41.2-2.7,48.5-4.5
		c8.6-2.1,6.6-14.2,4.1-17.3C79.7,212.9,76,211.9,71.7,211.9z"/>
	<path class="st9" d="M499.5,195.9c-6.3,6.9-87.7,6.6-109.8,6.7c-46.1,0-150.1,8.5-150.1,7c0-2.6,15.1-3.3,49.9-6.8
		c17.7-1.8,40.4-3.7,68.8-5.2C442.7,193.1,508.7,185.8,499.5,195.9L499.5,195.9z"/>
	<path class="st10" d="M64.7,217c-4.1,0-10.7,4.3-14.9,9.7s-4.2,9.7-0.2,9.7s10.7-4.3,14.9-9.7S68.8,217,64.7,217z"/>
	<path d="M484.7,242.6c-24.8,0-44.8,20.1-44.8,44.8c0,9.2,2.9,18.3,8.2,25.8c28.1-15.1,52.7-32.8,73-52
		C512.6,249.6,499.1,242.6,484.7,242.6L484.7,242.6z"/>
	<path d="M136.4,242.6c-24.8,0-44.8,20.1-44.8,44.8c0,24.8,20.1,44.8,44.8,44.8s44.8-20.1,44.8-44.8l0,0
		C181.2,262.7,161.1,242.6,136.4,242.6L136.4,242.6L136.4,242.6z"/>
	<path class="st3" d="M457.7,147.4c6.2,5.1,14.9,29.3,16.5,38.2c0,0-100.7,5-115.8,6.8l2.3-55.6
		C360.7,136.9,450.2,141.5,457.7,147.4L457.7,147.4z"/>
	<path class="st10" d="M457.7,147.4c3.9,3.2,8.7,13.8,12.2,23.5c-7.9,3-18.6,3.1-24,6.8c-3.4,2.4-2.9,5.8-0.7,9.3
		c-21.6,1.1-50.5,2.7-69.4,4c11-9.6,3.9-20.6,11.7-26.4c10.9-8,36.8,0,44.2-8.5c2.6-3,3.4-8,3.4-13.4
		C446.6,144.2,455.5,145.8,457.7,147.4L457.7,147.4z M358.7,184.9l0.1-2.9c1.2-0.1,2.3-0.3,3.4-0.8c1.8-0.7,3.2-2,4.1-3.8
		c1.2-2.4,1.5-6,0.3-10.9c-2.1-9.3,2.6-13.4,9.9-15.1c6.5-1.5,15-0.9,22.3-0.3c6.1,0.4,11.3,0.8,13-0.1c3-1.8,2.1-4.9,0.2-8.1
		c-0.5-0.9-1.1-1.8-1.7-2.7l3.6,0.3c0.2,0.3,0.4,0.7,0.6,1c2.6,4.5,3.8,9.1-1.3,12c-2.4,1.4-8,1-14.6,0.5
		c-7.1-0.5-15.4-1.1-21.5,0.3c-5.7,1.3-9.4,4.5-7.7,11.6c1.3,5.6,0.9,9.8-0.5,12.8c-1.1,2.4-3.1,4.2-5.6,5.2
		C361.8,184.5,360.3,184.9,358.7,184.9L358.7,184.9z"/>
	<path class="st3" d="M344.4,136.9L334,194.6c0,0-120.1,11.3-121.5,9.9s8.5-28.9,9.3-30.8S267.1,142.9,344.4,136.9L344.4,136.9z"/>
	<path class="st10" d="M344.4,136.9l-2.8,15.3c-12.2,1.2-24.6,1.6-26.6,6.8c-4.9,12.9,15.9,12.5,11.3,29.9c-0.7,2.8-2.4,5.3-4.7,6.9
		c-30.7,2.9-108,9.9-109.1,8.8c-0.4-0.4,0-2.4,0.8-5.2c24.8-8.9,55.1-6.6,55.1-13.7c0-9.6-21.1-7.8-18.4-18.7
		c2.7-10.6,46-11.8,48.2-23.2C313.4,140.3,328.9,138,344.4,136.9L344.4,136.9z M218.8,181.9c0.6-1.8,1.2-3.4,1.6-4.7
		c3.5-1.6,7.1-1.4,10.1-1.1c2.4,0.2,4.3,0.3,4.9-0.9s-0.6-3.3-1.9-5.5c-0.5-0.8-1-1.7-1.5-2.6c0.8-0.4,1.7-0.9,2.5-1.4
		c0.4,0.8,0.9,1.7,1.4,2.5c1.7,2.9,3.3,5.6,2,8.3c-1.5,3-4.2,2.8-7.7,2.5S222.8,178.3,218.8,181.9L218.8,181.9z"/>
	<path class="st3" d="M216.6,177.8c0,0-38.9,24-40.6,26.9s33.4,0,33.4,0C210.9,195.4,213.3,186.4,216.6,177.8L216.6,177.8z"/>
	<path class="st5" d="M243.5,191.8c-0.4,7.4-6.3,9.3-10.4,8.8s-14.3-4-14.3-8.8s5.9-10,12.4-10S243.9,185.2,243.5,191.8z"/>
	<path class="st3" d="M472.4,200c0.1,3,3.5,4.4-7,4.1s-20.3,2.3-19.5-0.9s7.9-5.3,13.5-5.3S473,196.4,472.4,200L472.4,200z"/>
	<path class="st3" d="M337.1,208.4c0.1,3,3.5,4.4-7,4.1s-20.3,2.3-19.5-0.9s7.9-5.3,13.5-5.3S337.7,204.8,337.1,208.4L337.1,208.4z"
		/>
	<path class="st11" d="M474.1,185.6c0,0,8.1,30.9,3.5,39.3s-16.4,9.5-32.5,24.8s-15.6,35.3-20.4,37.7s-85.2,2.3-85.2,2.3
		s-123.3,4.5-127,1.1s-3.7-40.3-3.7-50.7s-0.5-29.2,3.6-35.8 M352.6,136.9l-6.1,55.6c-2.1,8.3-7,57.6-7,97.3"/>
	<path class="st9" d="M33.5,255.3c0,1.1,32.6,4.6,39.4,2.1s6.2-7.3-1-7.3s-15.2,3-23.5,3.5S33.4,254.2,33.5,255.3L33.5,255.3z"/>
	<path class="st3" d="M50.6,270.3c0,0-0.9,7.6-0.2,10.1s1.8,4.9,4.8,4.9s7.7-4,7.7-10S50.6,270.3,50.6,270.3L50.6,270.3z"/>
	<path class="st12" d="M45.2,268c7.8,0.8,16.3-1,19.2,2.9c2.6,3.4,2.1,7.9-2.8,14.4"/>
	<path class="st13" d="M484.7,258.9c-15.8,0-28.6,12.8-28.6,28.6c0,6.5,2.2,12.7,6.2,17.8c16.4-9.7,32-20.7,46.5-33
		C503.6,263.9,494.5,258.9,484.7,258.9L484.7,258.9z"/>
	<path class="st14" d="M506,274.6c-2.9-4.8-7.4-8.5-12.6-10.4c2.4,4.3,3.7,9.1,3.7,14c0,1.3-0.1,2.6-0.3,3.8
		C499.9,279.5,503,277.1,506,274.6L506,274.6z"/>
	<path class="st13" d="M136.4,258.9c-15.8,0-28.6,12.8-28.6,28.6s12.8,28.6,28.6,28.6s28.6-12.8,28.6-28.6l0,0
		C164.9,271.6,152.2,258.9,136.4,258.9z"/>
	<path class="st14" d="M121.5,307.3c11,8.2,26.6,6,34.8-5c7.1-9.5,6.5-22.8-1.5-31.6c4.8,15-3.5,31.1-18.6,35.9
		C131.5,308.1,126.4,308.4,121.5,307.3z"/>
	<path class="st15" d="M78,219c-2.7,0-7.1,2.9-9.9,6.4s-2.8,6.4-0.1,6.4s7.1-2.9,9.9-6.4S80.7,219,78,219z"/>
	<path class="st16" d="M225.2,195.5c2.6,1.5,4.6,2,2.2,8.4s-3.9,7.3-10.8,7.3s-6.4-4.9-2.1-9.4S222.1,194.1,225.2,195.5L225.2,195.5
		z"/>
	<path class="st17" d="M343.9,78.4c4,0,7.3,0.6,7.3,1.5s-3.3,1.5-7.3,1.5s-7.3-0.6-7.3-1.5S339.9,78.4,343.9,78.4z"/>
	<path class="st8" d="M343.9,6.8c11.8,0,21.4,9.6,21.4,21.4s-21.4,51.6-21.4,51.6S322.5,40,322.5,28.2S332.1,6.9,343.9,6.8z"/>
	<path class="st18" d="M343.9,21c4,0,7.3,3.3,7.3,7.3s-3.3,7.3-7.3,7.3s-7.3-3.3-7.3-7.3S339.9,21,343.9,21L343.9,21z"/>
	<path d="M118.6,67.1c0,0-0.3,9.4-3.6,12.2S110.5,67,110.5,67L118.6,67.1z"/>
	<path class="st2" d="M100.8,350.6h-2.3c-50.2,0-90.8,2.8-90.8,6.3s40.7,6.3,90.8,6.3c17.8,0,34.4-0.4,48.4-1l0,0
		c25.4-1.1,42.4-3.1,42.4-5.3C189.3,353.4,149.9,350.6,100.8,350.6z"/>
	<path class="st19" d="M114.5,122c0-3.8,0.2-8.1-1.9-11.5s-12-1.3-19.4-1.5s-25-5-27.6,1.3s0,10.8,0,10.8c-4.1,3.5-7.6,7.5-10.5,12
		c-4,6.6-7.2,19.1-9.4,23.4s-4.3,14.9-3,22.2s1,15.5,3.7,18.2c2.7,2.7,11.1,5.5,23.3,6.2s39,6.7,39-10S120.5,165.6,114.5,122
		L114.5,122z"/>
	<path class="st20" d="M114.5,122c0-3.1,0.1-6.4-0.9-9.4c-3.7,0.1-8.2,0.6-12,0.4c-7.4-0.3-25-5-27.6,1.3s0,10.8,0,10.8
		c-4.1,3.5-7.6,7.5-10.5,12c-4,6.6-7.2,19.1-9.4,23.4s-4.3,14.9-3,22.2c1.3,7.1,1,15.1,3.6,18c4.9,1.3,10,2.1,15.1,2.3
		c12.2,0.7,39,6.7,39-10S120.6,165.6,114.5,122L114.5,122z"/>
	<path class="st21" d="M158.7,347.8c0,0,1.1,9.3-7.7,9c-5.4-0.2-10.7-0.7-16-1.5v1.5h-14.1v-6.6L158.7,347.8L158.7,347.8z"/>
	<polygon class="st19" points="123.5,217.2 136.2,332.4 121.7,332.4 100.1,250.2 82.2,337 67.6,337 67.5,217.2 	"/>
	<path class="st22" d="M116.3,167.9c3.1,8.9,9.3,17.3,19.4,16.5s0-27.3,0-27.3L116.3,167.9L116.3,167.9z"/>
	<path class="st23" d="M138.7,166.6c-0.8-3.2-1.8-6.4-3-9.6l-9.2,5.1c-0.1,6,1.5,12.2,8.9,12.5L138.7,166.6L138.7,166.6z"/>
	<path class="st22" d="M88,99l-2.3,27.8H105c0,0-4.4-15.3-4.4-23.2L88,99z"/>
	<path class="st24" d="M88,99l-0.5,5.8c4.4,4.5,10.2,8.6,14.6,10.4c-0.9-3.8-1.4-7.6-1.6-11.5L88,99z"/>
	<path class="st22" d="M115.1,61.9c0,0,7,46.1-15.9,46.1S79,76.6,79,68.6v-6.7L115.1,61.9z"/>
	<path d="M76.3,80.6c7.1,0.6,12.3-4.1,12.3-8c-0.1-2.7-0.9-5.3-2.2-7.7c5.2,5.1,12.3,8,19.6,7.9c12.2-0.2,17.6-6.5,16.9-14.5
		c-0.5-5.2-5.2-9.4-9.5-9.4s-11.9,3.2-17.2,3.2S85,49.8,81.3,53s-3.4,6.3-3.4,6.3s-9.1,2.3-9.1,10.1s5.9,11.6,7.3,11.5L76.3,80.6z"
		/>
	<path d="M96,83.4c0.8,0,1.5,0.6,1.5,1.4s-0.6,1.5-1.4,1.5s-1.5-0.6-1.5-1.4c0,0,0,0,0-0.1C94.6,84.1,95.2,83.4,96,83.4z"/>
	<path d="M110,83.6c0.8,0,1.5,0.6,1.5,1.4s-0.6,1.5-1.4,1.5s-1.5-0.6-1.5-1.4c0,0,0,0,0-0.1C108.6,84.3,109.2,83.6,110,83.6z"/>
	<path class="st24" d="M104.7,83.8c2.3,4.1,3.8,7.3-3.2,8.6c-0.3,0.1-0.6-0.1-0.6-0.4c0-0.2,0.2-0.5,0.6-0.5c5.9-1,4.2-3.7,2.2-7.2
		c-0.1-0.2,0-0.5,0.3-0.6C104.2,83.5,104.5,83.6,104.7,83.8L104.7,83.8z"/>
	<path class="st25" d="M63.1,132.4c1.9-2.9,23.4-14.3,23.4-14.3s3.4,7.1,10,7.1s6.1-7.9,6.1-7.9s22.7,6,24.8,8.4
		s11.6,38.5,11.6,38.5s-6.2,4.8-18.3,4.1c0,0,2.9,29.7,3.9,36.1s3,11,2.5,11.8c-3.9,4.9-16.6,6.7-22.2,7.5
		c-13.5,1.8-28.7-0.4-40.8-6.7c-1.6-0.8,2.4-34.9,3.6-41c0,0-14.7-3.5-14.8-4.5S61.2,134.9,63.1,132.4z"/>
	<path class="st26" d="M129.3,167.8c-1.7,0.3-3.3,0.4-5,0.5l-0.8-31.1C129.7,147.6,129.5,163.4,129.3,167.8L129.3,167.8z"/>
	<path class="st26" d="M84.2,119.3l0.5-0.3c1.1,2.2,2.8,4.2,4.8,5.6c2.1,1.7,4.7,2.5,7.4,2.3c5-0.6,6.6-3.2,7-5.8
		c0.2-1.2,0.1-2.4-0.1-3.5l0.7,0.2c0.2,1.1,0.2,2.3,0.1,3.4c-0.4,2.8-2.2,5.6-7.5,6.2c-2.8,0.2-5.6-0.7-7.9-2.5
		C87,123.6,85.3,121.6,84.2,119.3L84.2,119.3z"/>
	<path class="st22" d="M132,170.7c-1.4,7,1,13.3,4.6,13.5s7.1-1.5,12.5-11.4s10.4-35.4,11.3-36.8s8.8-0.1,11.1-2.9s3.8-15.7,0-15.7
		s-16.1,5.1-18.7,15.2S139,150.8,132,170.7z"/>
	<path class="st26" d="M134.1,324c5.2,1.9,2.4,12.3,3.6,14.3s4.5,3.3,9.3,2.3s12.9-0.1,12.9,5.7s-2.1,7.9-12.9,7.9s-25.9,0-26.5-2
		s-0.7-19.8,0.7-21.8c0.4-0.5,4,0.5,5.4-0.7C128.7,327.9,129.3,323.8,134.1,324L134.1,324z"/>
	<path d="M149.4,340.3c-2.4,0.3-3.9,2.2-4.9,3.9c-0.2,0.3-0.5,0.4-0.8,0.3s-0.4-0.3-0.4-0.6v-0.1c1.2-2.2,3-4.2,6-4.6
		c0.3-0.1,0.6,0.1,0.6,0.4c0.1,0.3-0.1,0.6-0.4,0.6C149.5,340.3,149.4,340.3,149.4,340.3L149.4,340.3z"/>
	<path d="M143.9,340.8c-1.9,0.3-3.5,1.4-4.7,2.9c-0.2,0.3-0.5,0.4-0.8,0.3s-0.4-0.3-0.3-0.6v-0.1c1.4-1.9,3.5-3.2,5.8-3.5
		c0.3-0.1,0.6,0.1,0.6,0.4c0.1,0.3-0.1,0.6-0.4,0.6C144.1,340.8,144,340.8,143.9,340.8L143.9,340.8z"/>
	<path d="M139.2,339.7c-0.9-0.1-2.4,1.2-2.9,1.7c-0.2,0.3-0.6,0.3-0.9,0.2c-0.2-0.1-0.4-0.4-0.3-0.6c0,0,0-0.1,0.1-0.1
		c1-0.9,2.6-2.3,4.3-2.1c0.3,0,0.5,0.3,0.5,0.6c0,0,0,0,0,0.1C139.8,339.7,139.5,339.8,139.2,339.7L139.2,339.7z"/>
	<path d="M130.4,339.7c0.9-1.5,2-2.8,3.3-4c-4-0.3-7.1-1.9-3.6-3.2c1.4-0.5,3.7,0.2,6.1,1.1c4-2.7,7.7-3.4,6-0.5
		c-0.7,1-1.7,1.7-2.8,2c1.3,0.7,2.6,1.4,3.8,2.3c0.2,0.2,0.2,0.5,0,0.7l-0.1,0.1c-0.3,0.2-0.6,0.2-0.9-0.1c-1.5-0.9-3-1.8-4.5-2.5
		c-0.7,0.1-1.4,0.2-2.1,0.2c-1.5,1.2-2.9,2.6-4.1,4.2c-0.1,0.3-0.4,0.5-0.8,0.4c-0.3,0-0.5-0.3-0.5-0.6
		C130.4,339.8,130.4,339.8,130.4,339.7L130.4,339.7z M135,334.5l0.2-0.1c-2.5-1-4.9-1.6-5.2-0.5C130.4,334.4,132.7,334.6,135,334.5
		L135,334.5z M137.5,334.2h0.1c1.9-0.3,3.5-1,3.6-2C139.9,332.6,138.6,333.3,137.5,334.2L137.5,334.2z"/>
	<path class="st19" d="M114.6,118.2c4.1,1,6.3,3.9,8.2,10.7s4.9,26.4,4,36.8c-0.7,7-2.1,13.9-4.2,20.6c0,0-2-20-2.5-24.4
		s-5.6-30.9-7.9-36.5s-3.9-6.4-3.5-7.2S114.6,118.2,114.6,118.2L114.6,118.2z"/>
	<path class="st21" d="M63.7,350.7l-2.7,0.1c0.2,4.5-1,10.9,13.1,11.1s13.1-4.6,13.2-9.6L63.7,350.7L63.7,350.7z"/>
	<path class="st19" d="M74.9,121.4c3.9-2,5.7-1.8,6.2-1.2c2.6,3.4,4.2,7.5,4.7,11.7c0.8,6.8,2.1,21.4,1.5,30.4s-10.6,29.3-21.7,30.6
		v-17.5c0.9,0.2,1.7,0.4,2.1,0.5c2.8,0.4,9.5,0.6,12.3-0.6c0,0,1.5-10.7,1.5-16.1c0-4.4-2.9-24.6-5.5-28.5s-3.9-4.7-4-5.3
		S72.3,122.9,74.9,121.4L74.9,121.4z"/>
	<path class="st22" d="M73.2,83.7c0,3.1,2.5,5.2,5.7,5.2s4.3-4.3,4.3-5.3s-1.4-4.9-5-4.9c-2.6-0.2-4.8,1.8-5,4.4
		C73.2,83.4,73.2,83.6,73.2,83.7L73.2,83.7z"/>
	<path class="st24" d="M77.6,80.9c1.9-0.2,3.9,0.9,3.7,3.1c0,0.4-2.4,0.4-1.9,1s1.4,0.6,2,0.2c-0.1,0.8-2.4,1.4-2.9,0
		c-0.2-0.7,0.3-1.6,1.7-1.6c-0.1-1.2-1-2.1-2.2-2c-0.1,0-0.2,0-0.2,0c-2.1,0.3-2.4,1.3-2.5,1.9C74.9,82.6,75.5,81.1,77.6,80.9
		L77.6,80.9z"/>
	<path class="st22" d="M56.8,173c-1.2,3.9-2.5,10.1-1,15.4c2.4,8.4,18.8,51,18.8,51l6.8-4.8c0,0-8.8-44.5-9.2-48.3
		c1.8-3.2,3.1-6.6,4-10.1c-2.9,0.1-5.7-0.1-8.5-0.6C65.8,175.2,60.1,174,56.8,173L56.8,173z"/>
	<path class="st6" d="M157.1,100.4l13.9,1.1c0.9,0,1.7,0.7,1.7,1.6c0,0,0,0,0,0.1l-2.8,25.3c-0.2,0.9-1.1,1.5-2,1.4l-13.9-1.1
		c-0.9,0-1.7-0.7-1.7-1.6l0,0l2.8-25.3C155.3,100.9,156.2,100.3,157.1,100.4L157.1,100.4z"/>
	<path d="M169.3,102.8L169.3,102.8c0.7,0,1.3,0.6,1.3,1.3l0,0l-0.4,3.8c-0.2,0.7-0.9,1.2-1.6,1.1l0,0c-0.7,0-1.3-0.6-1.3-1.3l0,0
		l0.4-3.8C167.9,103.2,168.6,102.7,169.3,102.8z"/>
	<path class="st13" d="M169.2,103.5c0.5,0,0.8,0.3,0.8,0.8l0,0c-0.1,0.5-0.5,0.8-1,0.7c-0.5,0-0.8-0.3-0.8-0.8l0,0
		C168.4,103.7,168.8,103.4,169.2,103.5z"/>
	<path class="st3" d="M168.8,107.3c0.3,0,0.5,0.2,0.5,0.5l0,0c-0.1,0.3-0.3,0.5-0.6,0.4c-0.3,0-0.5-0.2-0.5-0.5l0,0
		C168.3,107.4,168.6,107.3,168.8,107.3z"/>
	<path class="st13" d="M169,105.4c0.5,0,0.8,0.3,0.8,0.8l0,0c-0.1,0.5-0.5,0.8-1,0.7c-0.5,0-0.8-0.3-0.8-0.8l0,0
		C168.1,105.6,168.5,105.3,169,105.4z"/>
	<path class="st26" d="M76,331.7c10.1,0.4,6.9,8.8,6.6,12.4s4.6,4.8,4.8,8.1s-2.8,7.1-12.9,7.1S61,355.6,61,350.2s5.5-6,5.5-9.3
		S63.6,332,76,331.7L76,331.7z"/>
	<path d="M69.3,348.8c2.2-1.4,5.9-1.2,8.1,0.1c0.2,0.1,0.2,0.4,0.1,0.6l-0.1,0.1c-0.3,0.2-0.6,0.2-0.9,0c-1.6-0.9-4.8-1.1-6.4-0.1
		c-0.3,0.2-0.6,0.2-0.9,0c-0.2-0.1-0.2-0.4-0.1-0.6C69.2,348.9,69.2,348.9,69.3,348.8L69.3,348.8z"/>
	<path d="M70.1,345.4c1.9-0.9,5-1.1,6.7,0.2c0.2,0.1,0.2,0.4,0.1,0.6l-0.1,0.1c-0.3,0.2-0.6,0.2-0.9,0c-1.1-0.8-3.8-0.6-5-0.1
		c-0.3,0.2-0.6,0.2-0.9,0c-0.2-0.2-0.2-0.5,0-0.6C70,345.5,70.1,345.5,70.1,345.4L70.1,345.4z"/>
	<path d="M70.2,342.7c1.3-1.5,5.3-1.7,7,0c0.2,0.2,0.1,0.5-0.1,0.6c0,0-0.1,0-0.1,0.1c-0.3,0.2-0.6,0.1-0.9-0.1c-1-1-4.1-0.8-4.8,0
		c-0.2,0.3-0.5,0.4-0.8,0.2c-0.2-0.1-0.4-0.3-0.3-0.6C70.2,342.9,70.2,342.9,70.2,342.7L70.2,342.7z"/>
	<path d="M67.5,343.1c1.4-1.6,2.9-3.1,4.7-4.2c-3.3-0.9-5.6-2.6-3.9-3.9c1.5-1.1,3.9,0.8,6,2.7c5.3-2.6,9.6-1.6,7.2,0.4
		c-1.5,1.1-3.4,1.6-5.3,1.4c0.5,0.5,1.1,1,1.8,1.4c1.3,0.6,2.6,1.1,4,1.4c0.3,0,0.5,0.3,0.4,0.6c0,0,0,0,0,0.1
		c-0.1,0.3-0.5,0.4-0.8,0.3l-2.2-0.6c-1.9-0.7-3.7-1.8-5.2-3.3c-2,1.2-3.9,2.6-5.6,4.2c-0.2,0.3-0.5,0.4-0.8,0.2
		C67.6,343.7,67.4,343.4,67.5,343.1L67.5,343.1L67.5,343.1z M72.9,338c-1.4-1.3-2.5-2.3-3.7-2.3c0,0-0.1,0-0.1,0.1
		C68.8,336.7,70.6,337.5,72.9,338L72.9,338z M75.9,338.4c2.2,0.1,4.2-0.2,4.8-1.1C80.3,336.4,78.2,337.1,75.9,338.4z"/>
	<path class="st26" d="M73.5,176.3c1.4-2.5,6.4-11.1,7.1-25.4c0.4,2.8,0.7,5.6,0.8,8.4c0,5.4-1.5,16.1-1.5,16.1
		C77.9,176.1,75.7,176.4,73.5,176.3L73.5,176.3z"/>
	<path d="M84.3,232.4c-3.6,4.3-6.7,7.4-13.2,8.1c-0.3,0.1-0.6-0.1-0.6-0.4c-0.1-0.3,0.1-0.6,0.4-0.6c0.1,0,0.2,0,0.3,0
		c5.9-0.6,8.8-3.8,12.1-7.6c0.2-0.3,0.6-0.3,0.9-0.2C84.3,231.9,84.4,232.1,84.3,232.4L84.3,232.4L84.3,232.4z"/>
	<path class="st22" d="M172.3,117.7c0,0-6.4-5.4-7.7-4.2s5.6,5.9,5.6,5.9s-7.4-4-7.7-2.3s7.2,6.2,7.2,6.2s-6.8-2.1-7.2-0.2
		s6.4,3,6.4,3s-7,0-7.4,1.1s9.1,3.4,9.1,3.4L172.3,117.7z"/>
	<path d="M92.9,80.2c0.1-0.1,0.2-0.3,0.4-0.4l0.2-0.2c0.1-0.1,0,0,0,0s0.1,0,0.1-0.1c0.1-0.1,0.3-0.2,0.4-0.3l0.2-0.1l0.1-0.1h0.1
		c-0.1,0.1,0,0,0,0h0.1l0.3-0.1l0.5-0.1h0.1l0,0h0.3c0.2,0,0.4,0,0.5,0c0.5,0,0.8-0.4,0.8-0.9l0,0c0-0.5-0.4-0.8-0.9-0.9
		c-1.7-0.1-3.3,0.6-4.5,1.9c-0.4,0.3-0.4,0.8-0.1,1.2s0.8,0.4,1.2,0.1C92.8,80.3,92.8,80.3,92.9,80.2L92.9,80.2z"/>
	<path d="M108.2,81.6c0.2-0.1,0.3-0.1,0.5-0.1c0.1,0,0.3-0.1,0.1,0c0.1,0,0.2,0,0.3,0h0.5h0.3c0.2,0-0.2,0,0.1,0l0.5,0.1
		c0.2,0,0.3,0.1,0.5,0.2c-0.2-0.1,0.1,0,0.1,0l0.2,0.1c0.2,0.1,0.3,0.2,0.4,0.3c0.4,0.2,0.9,0.1,1.2-0.3c0.2-0.4,0.1-0.9-0.3-1.2
		c-1.4-1-3.2-1.2-4.8-0.8c-0.5,0.1-0.8,0.5-0.7,1S107.6,81.7,108.2,81.6C108,81.6,108.1,81.6,108.2,81.6L108.2,81.6z"/>
	<path d="M96.6,95.1c2.6,2.1,6.2,2.4,9.1,0.8c0.4-0.3,0.5-0.8,0.2-1.2c-0.2-0.3-0.7-0.4-1.1-0.3c-2.2,1.3-5,1.1-7-0.5
		c-0.3-0.3-0.9-0.3-1.2,0C96.2,94.2,96.2,94.7,96.6,95.1L96.6,95.1z"/>
	<path class="st27" d="M94.2,165.6L94.2,165.6c-0.2-1.6,0-3.2,0.5-4.7c0.1-0.2,0.2-0.5,0.3-0.7c0.5-1.2,1.2-2.2,2.1-3.1
		c0.1-0.1,0.2,0.1,0.2,0.1l0,0c-0.1,0.2-0.2,0.4-0.4,0.7s-0.2,0.4-0.3,0.7c-0.5,1.3-0.6,2.7-0.4,4l0,0c0.2,2.1,1.2,4,2.8,5.4
		c1.5,1.3,3.5,1.9,5.4,1.7l0,0c2-0.3,3.7-1.4,4.8-3c1.2-1.7,1.7-3.8,1.4-5.9l0,0l0,0c-0.1-0.9-0.4-1.9-0.8-2.7
		c-0.1-0.1-0.1-0.3-0.2-0.4c-0.4-0.7-0.8-1.3-1.4-1.8c-0.1-0.1,0-0.2,0.1-0.2l0,0c0.3,0.2,0.7,0.5,1,0.7c0.4,0.2,0.7,0.5,1,0.8
		c1.6,1.6,2.7,3.7,2.9,6l0,0c0.3,2.6-0.4,5.3-1.9,7.4c-1.5,2.1-3.8,3.4-6.4,3.8l0,0c-2.6,0.3-5.1-0.4-7.1-2.1
		C95.9,170.7,94.6,168.3,94.2,165.6L94.2,165.6z"/>
	<polygon class="st27" points="98.3,153.9 100.6,151.5 99.2,148.4 102.1,150 104.5,147.7 103.9,151 106.9,152.6 103.6,153.1 
		103,156.5 101.6,153.4 	"/>
</g>
</svg>
