<svg xmlns="http://www.w3.org/2000/svg" viewBox="0 0 750 500"><defs><style>.cls-1,.cls-5{fill:#fff;}.cls-2{fill:#97ffc8;}.cls-10,.cls-11,.cls-12,.cls-13,.cls-16,.cls-17,.cls-18,.cls-19,.cls-2,.cls-20,.cls-21,.cls-22,.cls-23,.cls-24,.cls-25,.cls-26,.cls-27,.cls-28,.cls-29,.cls-3,.cls-30,.cls-4,.cls-5,.cls-6,.cls-7,.cls-8,.cls-9{fill-rule:evenodd;}.cls-3{fill:#4aff97;}.cls-4{fill:#e6e6e6;}.cls-6{fill:#73ffb2;}.cls-7{fill:#fc0;}.cls-8{fill:#ffb900;}.cls-9{fill:#ea8e00;}.cls-10{fill:#ff4646;}.cls-11{fill:#ffe45f;}.cls-12{fill:#f1f1f1;}.cls-14,.cls-15{fill:none;stroke:#ea8e00;stroke-miterlimit:22.93;}.cls-14{stroke-width:2.83px;}.cls-15{stroke-width:2.13px;}.cls-16{fill:#333;}.cls-17{fill:#666;}.cls-18{fill:#ff6;}.cls-19{fill:#fa0;}.cls-20{fill:#ccc;}.cls-21{fill:#95b9ff;}.cls-22{fill:#ff4848;}.cls-23{fill:#ff1d1d;}.cls-24{fill:#630;}.cls-25{fill:#fc9;}.cls-26{fill:#ffba87;}.cls-27{fill:#f96;}.cls-28{fill:#f2f2f2;}.cls-29{fill:#e8e8e8;}.cls-30{fill:#e20613;}</style></defs><title>3725832</title><g id="BACKGROUND"><rect class="cls-1" width="750" height="500"/></g><g id="OBJECTS"><path class="cls-2" d="M366.15,102.72c133.61-45.32,264.51-15.49,292.37,66.64S600.65,354.8,467,400.13s-264.51,15.49-292.37-66.64S232.53,148,366.15,102.72Z"/><path class="cls-3" d="M627.93,140.61c16.33-5.54,32.13-2.47,35.29,6.85s-7.51,21.37-23.84,26.91-32.13,2.47-35.29-6.85,7.51-21.37,23.84-26.91Z"/><path class="cls-3" d="M604,120.26c8.3,2.85,13.4,9.91,11.38,15.78s-10.37,8.32-18.67,5.47-13.4-9.91-11.38-15.78,10.37-8.32,18.67-5.47Z"/><path class="cls-3" d="M630,120.13c4.45-1.51,9-.09,10.07,3.18s-1.6,7.14-6.06,8.65-9,.09-10.07-3.18,1.6-7.14,6.06-8.65Z"/><path class="cls-4" d="M151.67,238.78c-6.48,12.42-17.48,19.48-24.57,15.78s-7.58-16.77-1.1-29.18,17.48-19.48,24.57-15.78,7.58,16.77,1.1,29.18Z"/><path class="cls-4" d="M124.74,189.22c6.56,2.58,10.4,8.42,8.58,13.06s-8.62,6.31-15.17,3.74-10.4-8.42-8.58-13.06,8.62-6.31,15.17-3.74Z"/><path class="cls-4" d="M139.43,175.76c1.77-3.69,5.4-5.64,8.11-4.34s3.47,5.35,1.7,9-5.4,5.64-8.11,4.34-3.47-5.35-1.7-9Z"/><path class="cls-4" d="M311.36,90.87c113.33,38.13,227.33-44.72,263,88.24C595.13,256.79,437.39,283.61,345,295.53S170.72,266,162,202.85s36-150.11,149.32-112Z"/><path class="cls-5" d="M198,102.39l-8.41,34.22,100.81,25.91-5.79-78.61q3.46.62,7,1.42l.59,8,53.71,12.61L347,99.26c2.29.33,4.58.64,6.86.91L352.77,107l53.6,4.26,1.19-9.46q3.51-.12,7-.27L413.21,112l29.35,4.49L444.35,100q3.5-.16,6.95-.29L439.44,209.31l29.16,3.78L479,99.64q3.48.15,6.87.41L476,207.63l4.55.95,3-30.93,50.89,15.67.84-77.92a74.14,74.14,0,0,1,6.8,5.29l-.55,50.53,29.26-3.82c.85,2.53,1.66,5.18,2.44,7.9l-31.79,4.16-.69,64.25q-3.33,2.07-6.9,4L534,228l-58.78-12.24-.72,7.89-10.23,37.46L470,272.21q-3.52,1-7.08,1.91l-6.16-11.93,11-40.25.07-.72-29.29-3.8-4.23,39.07-33.14-5.4-4.25,36.84-7.06,1.16,5.56-48.19-.6-33.52-54.09-13.17-2.62,91.06,9.73,3.13,22.51,3.67c-8.83,1.28-17.34,2.43-25.35,3.46l-1,.11-35.58-11.46,1.3,13.36c-2.33,0-4.64-.1-6.94-.2l-1.43-14.7-50.54-1.76-1.53,7.37q-3.36-1-6.62-2.19l1.13-5.42-16-.56a154.46,154.46,0,0,1-16.42-8.73l34.09,1.18L251.25,245l-39.37-1.71L204.7,267q-3.07-2.14-6-4.41l9.69-31.89-6.81-6.71,13.53-35-36.33-8.54-10.77,43.84a82.13,82.13,0,0,1-4.18-12.07l24.77-100.82a90.5,90.5,0,0,1,9.34-8.94Zm16.32,132.89,41.4,1.8,41.27.06-2.88-29.68-72-16.93-12,31.11,6.46,6.37-2.21,7.27Zm83.46,10-39.5-.06-5.73,27.54,48.06,1.67-2.83-29.15Zm-79.66-64,10.18-26.35-40.64-10.44-6.88,28,37.34,8.78Zm17-24.58L225,182.9l68.25,16-.81-8.36v-.11L291,171l-55.86-14.36Zm57.67-54.9,6.48,88h0l3.09,31.82,30.65,1.24,1.37-47.71,10.17-61.17-51.75-12.15ZM351.42,115l-10.16,61.14-.28,9.77,54.35,13.23,10-79.85L351.42,115Zm60.78,5.06L409.34,143l29.7,6.16,2.66-24.52L412.2,120.1Zm-3.88,31-6.68,53.3.66,37.06-.18,1.58,26.29,4.28,9.75-90-29.84-6.19Zm79,58.93,46.79,9.74.19-18L489.46,187.9,487.35,210ZM303.2,229.77l4.43,45.67,23.69,7.63,1.5-52.1-29.62-1.2Z"/><path class="cls-4" d="M207.71,380.49C147,382.22,108,384.88,108,387.88c0,3.35,48.8,6.29,122.38,8a141.43,141.43,0,0,1-22.68-15.36Z"/><path class="cls-6" d="M372.5,378.43c-62.32,0-119.59.77-164.79,2.06a141.45,141.45,0,0,0,22.68,15.36c41,.94,89.8,1.48,142.11,1.48,37.16,0,72.52-.27,104.61-.77A409.92,409.92,0,0,0,516,379.94c-41.34-1-90.62-1.51-143.53-1.51Z"/><path class="cls-7" d="M244,251.75c-24.2,7.94-65.22,12.19-95,21.25s-41,25.87-41,30.67V333c0,7.76,9.88,15.43,24.76,24s28.08,6.84,35.66,6.84h3.25a48.57,48.57,0,1,1,91.39,0H520a48.57,48.57,0,0,1,84.78-45.32,252,252,0,0,0,24.38-27.36,46.52,46.52,0,0,1-.47-6.22c0-18.66-36-55.8-41.76-61.71S574,210.36,574.73,207.59s8.65-1.3,9.24-3.51-17.55-5.91-37.69-9.24S464.8,185.23,424,187.45s-63.74,7.94-96.26,23.1-51.92,28.27-83.7,41.2Z"/><path class="cls-8" d="M391.68,326.09c-51.64,0-93.51,1.17-93.51,2.61s41.86,2.61,93.51,2.61,93.51-1.17,93.51-2.61-41.86-2.61-93.51-2.61Z"/><path class="cls-9" d="M628.69,285.62c0-.2,0-.41,0-.61s0-.56,0-.85a66,66,0,0,0-20.24,7.54c-1.86,1.1-3.8,2.5-5.87,4-4.15,3-8.85,6.37-14.62,8.55q.84.43,1.66.9c5.38-2.23,9.83-5.44,13.79-8.29,2-1.46,3.93-2.83,5.76-3.91a64.3,64.3,0,0,1,19.54-7.32Z"/><path class="cls-10" d="M627,276.77c-3.16-8.58-10.23-18.87-17.61-28.17-8-1.11-11.41-1.27-12.09.92-.9,2.89,14.19,23.64,22.19,26.17a26.39,26.39,0,0,0,7.5,1.08Z"/><path class="cls-5" d="M152.69,271.92q-1.85.53-3.65,1.07c-21.44,6.53-33.28,17.08-38.22,24.27,12.06,5.06,41.25-2.67,48.46-4.47,8.6-2.15,6.61-14.22,4.13-17.28-2.71-2.64-6.45-3.66-10.72-3.59Z"/><path class="cls-11" d="M580.48,255.93c-6.33,6.92-87.7,6.65-109.76,6.66-46.13,0-150.07,8.45-150.07,7,0-2.6,15.11-3.3,49.87-6.83,17.67-1.8,40.42-3.66,68.84-5.18,84.33-4.51,150.32-11.75,141.12-1.68Z"/><path class="cls-12" d="M145.72,277c-4.06,0-10.74,4.33-14.9,9.67s-4.25,9.67-.19,9.67,10.74-4.33,14.9-9.67,4.25-9.67.19-9.67Z"/><path class="cls-13" d="M565.69,302.6a44.82,44.82,0,0,0-36.63,70.65c28.08-15.09,52.72-32.81,73-52a44.76,44.76,0,0,0-36.36-18.61Z"/><path class="cls-13" d="M217.39,302.6a44.82,44.82,0,1,0,44.82,44.82,44.82,44.82,0,0,0-44.82-44.82Z"/><path class="cls-5" d="M538.67,207.41c6.21,5.12,14.9,29.33,16.45,38.17,0,0-100.7,5-115.76,6.83l2.33-55.55s89.53,4.66,97,10.55Z"/><path class="cls-12" d="M538.67,207.41c3.88,3.2,8.72,13.84,12.19,23.54-7.94,3-18.57,3.1-24,6.81-3.44,2.36-2.9,5.79-.65,9.3-21.61,1.13-50.55,2.7-69.42,4,11-9.61,3.91-20.65,11.74-26.38,10.89-8,36.79,0,44.2-8.5,2.59-3,3.4-8,3.36-13.4,11.56,1.4,20.43,3,22.56,4.68Zm-99,37.51.12-2.88a11.14,11.14,0,0,0,3.38-.75,7.54,7.54,0,0,0,4.07-3.78c1.17-2.43,1.46-6,.34-10.92-2.11-9.27,2.59-13.4,9.89-15.06,6.49-1.48,15-.85,22.29-.32,6.13.45,11.31.83,13-.12,3-1.75,2.06-4.92.22-8.11-.51-.89-1.11-1.81-1.72-2.72l3.61.31q.3.49.59,1c2.6,4.52,3.82,9.09-1.28,12-2.41,1.39-8,1-14.58.5-7.08-.52-15.4-1.12-21.46.26-5.68,1.29-9.35,4.49-7.72,11.64,1.28,5.63.89,9.81-.55,12.79a10.34,10.34,0,0,1-5.57,5.2,14.14,14.14,0,0,1-4.57,1Z"/><path class="cls-5" d="M425.4,196.85,415,254.58s-120.1,11.33-121.5,9.93,8.51-28.85,9.28-30.77,45.34-30.83,122.61-36.88Z"/><path class="cls-12" d="M425.4,196.85l-2.75,15.27c-12.2,1.18-24.62,1.63-26.59,6.75-4.94,12.9,15.94,12.46,11.26,29.93a12.08,12.08,0,0,1-4.69,6.93c-30.7,2.85-108,9.89-109.12,8.78-.35-.35,0-2.36.77-5.21,24.78-8.92,55.11-6.55,55.11-13.73,0-9.63-21.14-7.82-18.39-18.71,2.68-10.61,46-11.78,48.23-23.22a338,338,0,0,1,46.18-6.79Zm-125.55,45c.61-1.76,1.18-3.36,1.65-4.67,3.55-1.64,7.11-1.37,10.08-1.15,2.41.18,4.31.33,4.93-.91s-.58-3.31-1.9-5.54c-.49-.84-1-1.7-1.46-2.57q1.21-.65,2.55-1.35c.42.84.9,1.66,1.38,2.46,1.73,2.94,3.33,5.63,2,8.28-1.48,3-4.23,2.76-7.71,2.49s-7.56-.57-11.52,3Z"/><path class="cls-5" d="M297.57,237.75s-38.91,24-40.61,26.87,33.41,0,33.41,0a140.65,140.65,0,0,1,7.21-26.87Z"/><path class="cls-7" d="M324.49,251.83c-.41,7.4-6.33,9.29-10.44,8.8s-14.3-4-14.3-8.8,5.92-10,12.37-10,12.73,3.41,12.37,10Z"/><path class="cls-5" d="M553.4,260c.08,3,3.45,4.44-7,4.11s-20.3,2.3-19.48-.9,7.93-5.34,13.5-5.34,13.55-1.48,13,2.14Z"/><path class="cls-5" d="M418.11,268.43c.08,3,3.45,4.44-7,4.11s-20.3,2.3-19.48-.9,7.93-5.34,13.5-5.34,13.55-1.48,13,2.14Z"/><path class="cls-14" d="M555.12,245.58s8.12,30.91,3.49,39.31-16.39,9.5-32.5,24.79S510.55,345,505.74,347.42s-85.24,2.32-85.24,2.32-123.31,4.53-127,1.1-3.69-40.31-3.69-50.66-.49-29.23,3.63-35.76m140.18-67.57-6.12,55.55c-2.11,8.29-7,57.61-7,97.34"/><path class="cls-11" d="M114.46,315.28c0,1.07,32.63,4.63,39.36,2.14s6.22-7.29-1-7.29-15.22,3-23.54,3.52-14.84.56-14.84,1.63Z"/><path class="cls-5" d="M131.63,330.31s-.85,7.56-.23,10.11,1.77,4.94,4.78,4.86,7.7-4,7.7-10-12.25-4.94-12.25-4.94Z"/><path class="cls-15" d="M126.15,328c7.79.77,16.34-1,19.19,2.85,2.56,3.42,2.07,7.86-2.84,14.43"/><path class="cls-16" d="M565.69,318.85a28.56,28.56,0,0,0-22.36,46.33,341.64,341.64,0,0,0,46.51-33,28.54,28.54,0,0,0-24.15-13.31Z"/><path class="cls-17" d="M587,334.57a24.93,24.93,0,0,0-12.61-10.44,28.43,28.43,0,0,1,3.65,14,28.79,28.79,0,0,1-.26,3.82q4.72-3.62,9.22-7.35Z"/><path class="cls-16" d="M217.39,318.85a28.56,28.56,0,1,0,28.56,28.56,28.56,28.56,0,0,0-28.56-28.56Z"/><path class="cls-17" d="M202.54,367.34a24.84,24.84,0,0,0,33.26-36.6,28.58,28.58,0,0,1-33.26,36.6Z"/><path class="cls-18" d="M159,279c-2.69,0-7.11,2.87-9.87,6.41s-2.82,6.41-.12,6.41,7.11-2.87,9.87-6.41,2.82-6.41.12-6.41Z"/><path class="cls-19" d="M306.16,255.53c2.63,1.48,4.62,2,2.23,8.36s-3.88,7.34-10.82,7.34-6.37-4.93-2.09-9.37,7.64-7.73,10.69-6.33Z"/><path class="cls-20" d="M424.92,138.42c4,0,7.32.65,7.32,1.46s-3.28,1.46-7.32,1.46-7.32-.65-7.32-1.46,3.28-1.46,7.32-1.46Z"/><path class="cls-10" d="M424.92,66.85a21.43,21.43,0,0,1,21.43,21.43c0,11.83-21.43,51.6-21.43,51.6s-21.43-39.76-21.43-51.6a21.43,21.43,0,0,1,21.43-21.43Z"/><path class="cls-21" d="M424.92,81a7.32,7.32,0,1,1-7.32,7.32A7.32,7.32,0,0,1,424.92,81Z"/><path class="cls-13" d="M199.61,127.12s-.28,9.36-3.55,12.2S191.52,127,191.52,127Z"/><path class="cls-4" d="M181.78,410.56h-2.3c-50.16,0-90.81,2.81-90.81,6.27s40.66,6.27,90.81,6.27c17.82,0,34.43-.35,48.45-1h0c25.45-1.11,42.36-3.07,42.36-5.3C270.29,413.42,230.87,410.64,181.78,410.56Z"/><path class="cls-22" d="M195.51,182c0-3.82.16-8.1-1.95-11.52s-12-1.27-19.41-1.54-25-5-27.65,1.27,0,10.79,0,10.79A55.87,55.87,0,0,0,136,193c-4,6.57-7.23,19.09-9.42,23.38s-4.3,14.94-3,22.18,1,15.48,3.73,18.16,11.12,5.53,23.3,6.22,39,6.66,39-10,11.9-27.39,5.91-70.94Z"/><path class="cls-23" d="M195.51,182c0-3.07.12-6.44-.95-9.42-3.73.05-8.2.56-12,.42-7.44-.27-25-5-27.65,1.27s0,10.79,0,10.79a55.85,55.85,0,0,0-10.5,12c-4,6.57-7.23,19.09-9.42,23.38s-4.3,14.94-3,22.18c1.27,7.08,1,15.12,3.56,18a70.61,70.61,0,0,0,15.1,2.34c12.18.68,39,6.66,39-10s11.9-27.39,5.91-70.94Z"/><path class="cls-24" d="M239.69,407.82s1.12,9.3-7.73,9a138.58,138.58,0,0,1-16-1.46v1.46H201.91V410.2l37.79-2.39Z"/><polygon class="cls-22" points="204.51 277.17 217.2 392.41 202.72 392.41 181.12 310.18 163.17 396.97 148.58 396.97 148.48 277.17 204.51 277.17 204.51 277.17"/><path class="cls-25" d="M197.33,227.88c3.1,8.87,9.3,17.31,19.42,16.46s0-27.28,0-27.28l-19.42,10.83Z"/><path class="cls-26" d="M219.73,226.63a93,93,0,0,0-3-9.58l-9.2,5.13c-.14,6,1.54,12.22,8.91,12.52l3.26-8.08Z"/><path class="cls-25" d="M169,159l-2.33,27.83H186s-4.41-15.31-4.41-23.16L169,159Z"/><path class="cls-27" d="M169,159l-.49,5.8c4.37,4.48,10.17,8.65,14.61,10.37a62.9,62.9,0,0,1-1.55-11.51L169,159Z"/><path class="cls-25" d="M196.13,121.93s7,46.14-15.88,46.14S160,136.57,160,128.63v-6.7Z"/><path class="cls-13" d="M157.28,140.58c7.09.56,12.28-4.13,12.28-8a17.93,17.93,0,0,0-2.17-7.69A27.5,27.5,0,0,0,187,132.8c12.2-.21,17.59-6.53,16.88-14.47-.46-5.15-5.18-9.38-9.53-9.38s-11.91,3.24-17.21,3.24-11.18-2.26-14.9.92-3.44,6.35-3.44,6.35-9.06,2.26-9.06,10.08,5.94,11.55,7.34,11.48Z"/><path class="cls-13" d="M177,143.41a1.46,1.46,0,1,1-1.39,1.46,1.43,1.43,0,0,1,1.39-1.46Z"/><path class="cls-13" d="M191,143.6a1.46,1.46,0,1,1-1.39,1.46A1.43,1.43,0,0,1,191,143.6Z"/><path class="cls-27" d="M185.7,143.8c2.26,4.08,3.78,7.3-3.22,8.55a.55.55,0,0,1-.65-.38c0-.25.22-.48.55-.52,5.86-1,4.19-3.66,2.22-7.22-.14-.22,0-.5.3-.62a.68.68,0,0,1,.8.19Z"/><path class="cls-28" d="M144.09,192.37c1.94-2.89,23.36-14.27,23.36-14.27s3.44,7.14,10,7.14,6.14-7.88,6.14-7.88,22.7,6,24.84,8.36S220,224.18,220,224.18s-6.22,4.81-18.26,4.09c0,0,2.91,29.74,3.88,36.15s3,11,2.47,11.76c-3.94,4.9-16.62,6.73-22.21,7.49-13.46,1.82-28.67-.41-40.82-6.68-1.55-.8,2.39-34.93,3.56-41,0,0-14.66-3.53-14.76-4.49S142.24,194.93,144.09,192.37Z"/><path class="cls-29" d="M210.34,227.83a35.26,35.26,0,0,1-5,.49l-.83-31.14c6.16,10.41,6,26.26,5.8,30.65Z"/><path class="cls-29" d="M165.18,179.31l.53-.29a15.27,15.27,0,0,0,4.83,5.63A10.74,10.74,0,0,0,177.9,187c5-.6,6.63-3.19,7-5.79a11,11,0,0,0-.12-3.54l.66.18a11.21,11.21,0,0,1,.08,3.42c-.41,2.8-2.21,5.59-7.54,6.24a11.42,11.42,0,0,1-7.87-2.47,15.93,15.93,0,0,1-4.95-5.73Z"/><path class="cls-25" d="M213,230.73c-1.45,7,1,13.26,4.59,13.46s7.09-1.47,12.46-11.36,10.43-35.38,11.26-36.83,8.78-.09,11.05-2.9,3.82-15.74,0-15.74-16.08,5.09-18.73,15.23S220,210.78,213,230.73Z"/><path class="cls-29" d="M215.14,384c5.23,1.94,2.35,12.34,3.63,14.28s4.48,3.26,9.29,2.29S241,400.49,241,406.3s-2.06,7.93-12.92,7.93-25.88,0-26.54-2-.69-19.83.67-21.77c.43-.51,4,.53,5.44-.7,2.09-1.85,2.64-6,7.51-5.73Z"/><path class="cls-13" d="M230.36,400.29c-2.4.31-3.94,2.23-4.88,3.9a.67.67,0,0,1-.8.3.49.49,0,0,1-.36-.66c1.21-2.16,3-4.2,6-4.57a.52.52,0,1,1,0,1Z"/><path class="cls-13" d="M224.9,400.83a7.47,7.47,0,0,0-4.67,2.87.68.68,0,0,1-.83.26.48.48,0,0,1-.31-.68,8.61,8.61,0,0,1,5.81-3.48.52.52,0,1,1,0,1Z"/><path class="cls-13" d="M220.17,399.74c-.87-.06-2.42,1.23-2.9,1.67a.7.7,0,0,1-.86.17.47.47,0,0,1-.21-.71c1-.94,2.6-2.32,4.3-2.13a.51.51,0,0,1,.44.63.65.65,0,0,1-.77.36Z"/><path class="cls-13" d="M211.35,399.7a17.51,17.51,0,0,1,3.34-4c-4-.32-7.13-1.89-3.56-3.17,1.35-.48,3.73.16,6.12,1.15,4-2.67,7.7-3.35,6-.5a5,5,0,0,1-2.81,2,34.13,34.13,0,0,1,3.81,2.26.46.46,0,0,1-.09.72.72.72,0,0,1-.88-.07,45.77,45.77,0,0,0-4.53-2.5,15.52,15.52,0,0,1-2.09.19,22.8,22.8,0,0,0-4.06,4.21.64.64,0,0,1-.75.39.52.52,0,0,1-.47-.62Zm4.69-5.17.18-.14c-2.53-1-4.86-1.62-5.22-.46.42.45,2.66.7,5,.59Zm2.5-.32.11.05c1.93-.33,3.49-1,3.62-2a9.73,9.73,0,0,0-3.73,2Z"/><path class="cls-22" d="M195.55,178.2c4.11,1,6.34,3.95,8.23,10.74s4.95,26.42,4,36.84a111.12,111.12,0,0,1-4.17,20.58s-2-20-2.5-24.43-5.61-30.92-7.95-36.52-3.89-6.35-3.5-7.2,5.89,0,5.89,0Z"/><path class="cls-24" d="M144.72,410.69l-2.66.09c.16,4.53-1,10.92,13.12,11.11s13.12-4.61,13.17-9.65l-23.62-1.54Z"/><path class="cls-22" d="M155.86,181.43c3.87-2,5.71-1.78,6.17-1.21a23.86,23.86,0,0,1,4.69,11.73c.8,6.79,2.12,21.35,1.49,30.45S157.64,251.74,146.5,253V235.48c.9.23,1.66.4,2.15.48,2.75.45,9.54.64,12.32-.6,0,0,1.46-10.69,1.46-16.1,0-4.4-2.89-24.64-5.54-28.53s-3.92-4.69-4-5.34.44-2.47,3-4Z"/><path class="cls-25" d="M154.22,143.74c0,3.08,2.51,5.22,5.71,5.22s4.27-4.31,4.27-5.29-1.4-4.89-5-4.89a4.73,4.73,0,0,0-5,5Z"/><path class="cls-27" d="M158.55,140.87c1.86-.22,3.93.9,3.72,3.07,0,.37-2.44.38-1.92,1a1.52,1.52,0,0,0,2,.19c-.15.81-2.36,1.42-2.86,0-.24-.69.28-1.58,1.73-1.61a2.12,2.12,0,0,0-2.45-2c-2.12.32-2.35,1.31-2.49,1.93-.35-.81.19-2.37,2.26-2.62Z"/><path class="cls-25" d="M137.78,233c-1.21,3.92-2.53,10.12-1,15.37,2.44,8.44,18.83,51.05,18.83,51.05l6.82-4.82s-8.76-44.48-9.25-48.33a42.17,42.17,0,0,0,4-10.11,35.83,35.83,0,0,1-8.54-.63c-1.88-.31-7.59-1.55-10.87-2.53Z"/><path class="cls-8" d="M238.13,160.44,252,161.5a1.66,1.66,0,0,1,1.69,1.68l-2.82,25.34a1.81,1.81,0,0,1-2,1.4L235,188.86a1.67,1.67,0,0,1-1.69-1.68l2.82-25.34a1.81,1.81,0,0,1,2-1.4Z"/><path class="cls-13" d="M250.33,162.81h0a1.29,1.29,0,0,1,1.31,1.3l-.42,3.76a1.4,1.4,0,0,1-1.58,1.08h0a1.29,1.29,0,0,1-1.31-1.3l.42-3.76a1.4,1.4,0,0,1,1.58-1.08Z"/><path class="cls-16" d="M250.25,163.5a.82.82,0,0,1,.84.83.9.9,0,0,1-1,.69.82.82,0,0,1-.84-.83.9.9,0,0,1,1-.69Z"/><path class="cls-5" d="M249.83,167.31a.49.49,0,0,1,.5.49.53.53,0,0,1-.6.41.49.49,0,0,1-.5-.49.53.53,0,0,1,.6-.41Z"/><path class="cls-16" d="M250,165.41a.82.82,0,0,1,.84.83.9.9,0,0,1-1,.69.82.82,0,0,1-.84-.83.9.9,0,0,1,1-.69Z"/><path class="cls-29" d="M157,391.73c10.07.4,6.9,8.81,6.58,12.44s4.63,4.84,4.79,8.06-2.76,7.06-12.87,7.06S142,415.63,142,410.16s5.46-6,5.46-9.33-2.88-8.88,9.47-9.09Z"/><path class="cls-13" d="M150.28,408.81c2.24-1.44,5.88-1.16,8.11.13a.45.45,0,0,1,0,.73.72.72,0,0,1-.88,0c-1.6-.89-4.77-1.13-6.38-.11a.72.72,0,0,1-.88,0,.45.45,0,0,1,0-.73Z"/><path class="cls-13" d="M151.07,405.44c1.88-.93,5-1.11,6.72.18a.45.45,0,0,1,0,.73.72.72,0,0,1-.88,0c-1.08-.79-3.81-.65-5-.09a.72.72,0,0,1-.88-.05.46.46,0,0,1,.06-.73Z"/><path class="cls-13" d="M151.16,402.73c1.33-1.52,5.31-1.66,7,0a.46.46,0,0,1-.17.71.71.71,0,0,1-.87-.14c-1-1-4.15-.75-4.81,0a.69.69,0,0,1-.84.22.47.47,0,0,1-.27-.69Z"/><path class="cls-13" d="M148.51,403.08a21.63,21.63,0,0,1,4.72-4.23c-3.29-.9-5.64-2.64-3.94-3.88,1.5-1.1,3.86.77,6,2.71,5.31-2.62,9.62-1.58,7.22.38a8.13,8.13,0,0,1-5.29,1.39,9,9,0,0,0,1.8,1.35,21.08,21.08,0,0,0,4,1.43.51.51,0,0,1,.41.64.66.66,0,0,1-.78.34l-2.16-.65a15.78,15.78,0,0,1-5.21-3.27,28.53,28.53,0,0,0-5.63,4.22.68.68,0,0,1-.83.25.48.48,0,0,1-.31-.68Zm5.35-5.09c-1.37-1.29-2.51-2.29-3.72-2.27,0,0-.07,0-.08.07-.26.91,1.53,1.73,3.8,2.19Zm3,.37c2.21.1,4.25-.21,4.84-1.15-.41-.84-2.5-.11-4.84,1.15Z"/><path class="cls-29" d="M154.47,236.31c1.38-2.52,6.41-11.12,7.12-25.42a78.46,78.46,0,0,1,.83,8.38c0,5.41-1.46,16.1-1.46,16.1a18.94,18.94,0,0,1-6.5.94Z"/><path class="cls-13" d="M165.29,292.43c-3.64,4.28-6.67,7.44-13.17,8.13a.52.52,0,1,1,0-1c5.88-.62,8.83-3.77,12.08-7.59a.7.7,0,0,1,.85-.2.47.47,0,0,1,.24.7Z"/><path class="cls-25" d="M253.29,177.67s-6.39-5.45-7.67-4.18,5.56,5.94,5.56,5.94-7.45-4-7.66-2.34,7.24,6.17,7.24,6.17-6.81-2.13-7.24-.21,6.38,3,6.38,3-7,0-7.45,1.06,9.15,3.4,9.15,3.4Z"/><path d="M173.87,140.19a4.75,4.75,0,0,1,.36-.37l.2-.18c.09-.07,0,0,0,0a.45.45,0,0,0,.1-.07,4.73,4.73,0,0,1,.43-.28l.24-.13.11-.05.06,0c-.11.05,0,0,0,0l.11,0,.26-.08.5-.12.12,0h0l.27,0a4.73,4.73,0,0,1,.54,0A.86.86,0,0,0,178,138a.88.88,0,0,0-.86-.86,5.6,5.6,0,0,0-4.48,1.86.86.86,0,1,0,1.21,1.21Z"/><path d="M189.16,141.63a4.77,4.77,0,0,1,.51-.13c.05,0,.32-.09.1,0a1.18,1.18,0,0,1,.26,0h.53l.26,0c.18,0-.16,0,.07,0l.48.11a2,2,0,0,1,.5.17c-.19-.12.05,0,.1,0l.23.12a4.76,4.76,0,0,1,.44.28.86.86,0,0,0,1.17-.31.88.88,0,0,0-.31-1.17,5.61,5.61,0,0,0-4.8-.76.86.86,0,1,0,.45,1.65Z"/><path d="M177.58,155.07a8,8,0,0,0,9.06.79.86.86,0,0,0-.86-1.48,6.23,6.23,0,0,1-7-.52.88.88,0,0,0-1.21,0,.86.86,0,0,0,0,1.21Z"/><path class="cls-30" d="M175.25,225.63h0a10.21,10.21,0,0,1,.51-4.69c.08-.22.18-.46.28-.69a10.22,10.22,0,0,1,2.15-3.12c.09-.08.23.05.18.14h0c-.13.21-.25.44-.36.66s-.2.45-.29.69a8.59,8.59,0,0,0-.43,4h0A8.41,8.41,0,0,0,180.1,228a7,7,0,0,0,5.41,1.68h0a7,7,0,0,0,4.83-3,8.42,8.42,0,0,0,1.42-5.88h0v0a8.6,8.6,0,0,0-.8-2.72c-.07-.14-.15-.27-.21-.4a8.5,8.5,0,0,0-1.37-1.8c-.07-.07,0-.23.14-.18h0a9.31,9.31,0,0,1,1,.72,7.8,7.8,0,0,1,1,.82,10.17,10.17,0,0,1,2.94,6h0a10.09,10.09,0,0,1-1.95,7.37,9.5,9.5,0,0,1-6.41,3.78h0a9.48,9.48,0,0,1-7.14-2.06,10.08,10.08,0,0,1-3.71-6.65Z"/><polygon class="cls-30" points="179.26 213.88 181.64 211.5 180.18 208.41 183.13 210.03 185.52 207.66 184.95 211.04 187.9 212.65 184.61 213.12 184.03 216.48 182.56 213.41 179.26 213.88 179.26 213.88"/></g></svg>